<?xml version="1.0" encoding="UTF-8" standalone="no"?>
<!-- Created with Inkscape (http://www.inkscape.org/) -->

<svg
   width="163.36259mm"
   height="149.95496mm"
   version="1.1"
   viewBox="0 0 163.36259 149.95496"
   id="svg551"
   sodipodi:docname="logo_text.svg"
   inkscape:version="1.2 (dc2aedaf03, 2022-05-15)"
   xmlns:inkscape="http://www.inkscape.org/namespaces/inkscape"
   xmlns:sodipodi="http://sodipodi.sourceforge.net/DTD/sodipodi-0.dtd"
   xmlns="http://www.w3.org/2000/svg"
   xmlns:svg="http://www.w3.org/2000/svg">
  <defs
     id="defs555" />
  <sodipodi:namedview
     id="namedview553"
     pagecolor="#423e3e"
     bordercolor="#000000"
     borderopacity="0.25"
     inkscape:showpageshadow="2"
     inkscape:pageopacity="0"
     inkscape:pagecheckerboard="true"
     inkscape:deskcolor="#d1d1d1"
     inkscape:document-units="mm"
     showgrid="false"
     inkscape:zoom="0.73851712"
     inkscape:cx="307.3727"
     inkscape:cy="358.82716"
     inkscape:window-width="1920"
     inkscape:window-height="1009"
     inkscape:window-x="-8"
     inkscape:window-y="-8"
     inkscape:window-maximized="1"
     inkscape:current-layer="svg551" />
  <g
     transform="translate(-24.6728,-31.869)"
     id="g549">
    <path
       d="m 180.53,74.103 -0.90583,6.735 -6.1078,0.80178 6.0561,0.88196 0.98346,6.7617 0.85406,-6.735 6.6254,-0.90869 -6.5737,-0.80178 z"
       fill="#ffffff"
       stroke-width="0"
       id="path479" />
    <g
       id="g487">
      <path
         d="m 166.41,97.099 v 2.1223 l -8.0156,-0.0175 c -1.8551,0.0863 -1.9554,1.1898 -1.9878,2.1047 0.022,1.5265 0.81995,2.1218 2.2334,2.1281 h 1.9294 c 0.006,0.36015 0.0493,1.5981 0.0497,2.1486 l -0.13138,-6.4e-4 -2.2921,-0.019 c -3.1663,0.0619 -4.1562,-1.821 -4.2212,-4.3147 -0.0286,-3.2479 1.9593,-4.1873 4.3498,-4.1744 z"
         fill="#ffffff"
         stroke="#ffffff"
         stroke-width="0.165"
         id="path481" />
      <path
         d="m 154.59,112.11 -0.0155,-2.2295 8.6681,0.0128 c 1.8536,-0.11416 1.9704,-1.3348 1.989,-2.2501 -0.0449,-1.526 -0.85175,-2.1093 -2.2651,-2.0943 l -2.35,0.0353 -0.0496,-2.1486 2.8119,-0.0213 c 3.165,-0.10947 4.1831,1.7584 4.2855,4.2508 0.0774,3.2471 -2.0284,4.4312 -4.4189,4.4543 z"
         fill="#ffffff"
         stroke="#ffffff"
         stroke-width="0.165"
         id="path483" />
      <path
         d="m 31.543,124.89 c 39.128,-21.32 127.35,-33.748 148.37,-66.113 -10.03,35.209 -76.219,53.287 -120.78,93.497 16.592,-20.937 49.995,-37.42 83.956,-60.275 -28.154,12.983 -65.336,18.543 -98.198,28.063 -4.6101,1.3355 -9.0232,3.0859 -13.341,4.8282 z"
         fill="#000090"
         stroke="#000090"
         stroke-width="0.065"
         id="path485" />
    </g>
    <path
       d="m 121.54,43.849 -35.185,55.327 10.747,-0.0427 -9.7754,29.046 8.3021,0.0935 -11.272,37.675 36.108,-55.71 -11.492,0.60766 5.1502,-16.717 4.5561,-12.003 -8.3674,0.3638 z"
       fill="#999999"
       stroke="#999999"
       stroke-width="0.26458px"
       id="path489" />
    <g
       fill="#ffffff"
       id="g539">
      <g
         stroke-width="0"
         id="g507">
        <path
           d="m 36.909,31.869 -1.1576,8.3344 -7.8052,0.99219 7.7391,1.0914 1.2568,8.3674 1.0914,-8.3344 8.4667,-1.1245 -8.4005,-0.99219 z"
           id="path491" />
        <path
           d="m 58.204,56.542 -0.6252,4.4753 -4.2156,0.53278 4.1799,0.58606 0.67879,4.4931 0.58948,-4.4753 4.5729,-0.60382 -4.5372,-0.53278 z"
           id="path493" />
        <path
           d="m 52.732,176.76 -4.2339,-0.53781 -0.56003,-4.0545 -0.4968,4.0362 -4.233,0.71899 4.2334,0.50338 0.63194,4.3977 0.44167,-4.3797 z"
           id="path495" />
        <path
           d="m 154.42,32.398 -0.61282,4.1378 -4.1322,0.4926 4.0972,0.54186 0.66534,4.1543 0.57781,-4.1378 4.4824,-0.55828 -4.4473,-0.4926 z"
           id="path497" />
        <path
           d="m 136.63,67.323 -0.60457,4.0938 -4.0765,0.48736 4.042,0.5361 0.65639,4.1101 0.57003,-4.0938 4.422,-0.55234 -4.3874,-0.48736 z"
           id="path499" />
        <path
           d="m 130.55,161.83 -0.3084,2.3581 -2.0795,0.28073 2.0619,0.30879 0.33483,2.3674 0.29077,-2.3581 2.2557,-0.31815 -2.2381,-0.28073 z"
           id="path501" />
        <path
           d="m 165.95,169.84 -0.69067,5.2632 -4.657,0.62657 4.6176,0.68923 0.74986,5.2841 0.65119,-5.2632 5.0517,-0.71011 -5.0122,-0.62657 z"
           id="path503" />
        <path
           d="m 146.67,114.51 -0.5506,4.0389 -3.7126,0.48082 3.6811,0.5289 0.59779,4.0549 0.51914,-4.0389 4.0272,-0.54493 -3.9958,-0.48082 z"
           id="path505" />
      </g>
      <g
         stroke-width="0"
         id="g523">
        <ellipse
           cx="90.273003"
           cy="173.92"
           rx="1.141"
           ry="1.1245"
           id="ellipse509" />
        <ellipse
           cx="26.128"
           cy="155.63"
           rx="1.4552"
           ry="1.3891"
           id="ellipse511" />
        <ellipse
           cx="100.34"
           cy="147.05"
           rx="0.8599"
           ry="0.87642998"
           id="ellipse513" />
        <ellipse
           cx="56.778"
           cy="134.52"
           rx="1.4304"
           ry="1.4965"
           id="ellipse515" />
        <ellipse
           cx="35.792"
           cy="77.233002"
           rx="1.6253"
           ry="1.6487"
           id="ellipse517" />
        <circle
           cx="140.63"
           cy="47.223"
           r="1.4304"
           id="circle519" />
        <ellipse
           cx="173.96001"
           cy="143.52"
           rx="1.2745"
           ry="1.2628"
           id="ellipse521" />
      </g>
      <g
         stroke="#ffffff"
         id="g537">
        <path
           d="m 65.979,96.998 c -1.5376,5.3e-4 -1.3866,0.004 -2.0826,10e-4 -1.5572,0.0805 -2.7221,0.67256 -3.6494,1.6092 -1.6584,1.6648 -1.6327,3.7113 -1.6717,3.7688 l -0.02274,4.3579 c 0.11741,0.53928 -0.10397,1.5373 1.5973,3.6168 1.0323,0.99873 2.1297,1.3138 3.2463,1.3668 h 5.3842 c 0.69608,-0.0369 2.456,-0.46599 3.668,-1.8934 0.98231,-1.2071 1.308,-2.4224 1.294,-3.6003 l 0.02274,-3.5931 c 0.12864,-2.8563 -2.2624,-5.6305 -5.5919,-5.6332 -0.98165,-7.5e-4 -1.6817,-7e-4 -2.1942,-5.2e-4 z m -0.01705,2.204 c 0.55182,0.002 1.1105,0.0175 1.6774,0.031 2.005,-0.0356 3.6512,0.99893 3.8762,3.0386 0.0481,0.7262 0.05431,1.4823 0.04651,2.2138 -0.006,0.55846 -0.02007,1.1027 -0.02997,1.6087 -0.0245,0.73966 -0.19234,1.5374 -0.56224,2.1503 -0.84545,1.1218 -1.6615,1.3412 -2.897,1.3384 l -3.6587,-0.008 c -1.1657,0.10768 -2.2483,-0.49437 -2.9037,-1.1529 -0.81893,-0.99966 -0.84427,-1.9448 -0.86558,-2.5404 v -1.7684 l 0.02377,-0.93793 c 0.0727,-0.97292 0.19281,-1.9432 1.0563,-2.8722 0.44162,-0.50902 0.97019,-0.75704 1.5296,-0.9126 0.88715,-0.15372 1.7876,-0.19116 2.7073,-0.18862 z"
           stroke-width="0.062869"
           id="path525" />
        <path
           d="m 131.66,97.316 c -1.5376,5.3e-4 -1.3866,0.004 -2.0826,10e-4 -1.5572,0.0805 -2.7221,0.67256 -3.6494,1.6092 -1.6584,1.6648 -1.6327,3.7113 -1.6717,3.7688 l -0.0227,4.3579 c 0.1174,0.53928 -0.10398,1.5373 1.5973,3.6168 1.0323,0.99873 2.1297,1.3138 3.2463,1.3668 h 5.3842 c 0.69608,-0.0369 2.456,-0.46599 3.668,-1.8934 0.98231,-1.2071 1.308,-2.4224 1.294,-3.6003 l 0.0227,-3.5931 c 0.12864,-2.8563 -2.2624,-5.6305 -5.5919,-5.6332 -0.98165,-7.5e-4 -1.6817,-7e-4 -2.1942,-5.2e-4 z m -0.017,2.204 c 0.55182,0.002 1.1105,0.0175 1.6774,0.031 2.005,-0.0356 3.6512,0.99893 3.8762,3.0386 0.0481,0.7262 0.0543,1.4823 0.0465,2.2138 -0.006,0.55846 -0.0201,1.1027 -0.03,1.6087 -0.0245,0.73966 -0.19233,1.5374 -0.56224,2.1503 -0.84544,1.1218 -1.6615,1.3412 -2.897,1.3384 l -3.6587,-0.008 c -1.1657,0.10768 -2.2483,-0.49437 -2.9037,-1.1529 -0.81893,-0.99966 -0.84427,-1.9448 -0.86558,-2.5404 v -1.7684 l 0.0238,-0.93793 c 0.0727,-0.97292 0.19281,-1.9432 1.0563,-2.8722 0.44162,-0.50902 0.97019,-0.75704 1.5296,-0.9126 0.88715,-0.15372 1.7876,-0.19116 2.7073,-0.18862 z"
           stroke-width="0.062869"
           id="path527" />
        <path
           d="m 79.094,97.19 -2.2198,-0.0112 v 10.754 c 0.02161,1.5898 0.96923,3.9061 4.6555,3.7973 l 6.5296,-0.032 0.02007,-2.0625 -6.2377,-0.003 c -0.14176,-9.1e-4 -0.27711,-0.007 -0.40619,-0.0171 -1.5574,-0.0708 -2.2192,-0.88333 -2.2145,-2.3473 -0.01451,-0.26289 -0.01023,-0.52983 -0.01378,-0.81967 z"
           stroke-width="0.25785px"
           id="path529" />
        <path
           d="m 88.222,97.056 11.361,-0.0165 0.01654,2.1167 h -4.5145 v 12.717 h -2.3812 l 0.01654,-12.717 h -4.5145 z"
           stroke-width="0.26458px"
           id="path531" />
        <path
           d="m 110.11,97.006 c -1.111,0.0111 -2.0307,0.33433 -1.9828,2.2417 l 0.0475,10.539 c -0.0728,0.77568 0.0239,1.2971 0.23428,1.648 0.39906,0.66548 1.2072,0.71726 2.0441,0.72603 l 6.9314,0.0475 c 2.9993,-0.76779 3.6864,-2.575 3.7362,-4.0855 0.0453,-1.3729 -0.25597,-2.9106 -2.2645,-3.7006 1.4938,-0.57114 2.2524,-2.3715 2.1673,-3.9202 -0.0538,-0.97873 -0.46095,-1.7669 -0.94671,-2.3229 -0.63208,-0.72337 -1.6178,-1.1066 -3.2143,-1.1627 h -6.2668 c -0.16424,-0.007 -0.32705,-0.0123 -0.48576,-0.0108 z m 0.41031,2.0045 6.0766,0.0475 c 2.8223,0.0916 2.7433,3.3605 0.8015,4.0881 -0.29001,0.10871 -0.61828,0.13795 -0.99115,0.13695 l -5.887,-0.0476 z m 0.0811,6.4973 6.0766,0.0475 c 3.2438,0.10527 2.6549,4.4084 -0.18965,4.2256 l -5.887,-0.0475 z"
           stroke-width="0.1"
           id="path533" />
        <path
           d="m 44.568,97.153 c -1.111,0.0111 -2.0307,0.33433 -1.9828,2.2417 l 0.0475,10.539 c -0.0728,0.77568 0.0239,1.2971 0.23428,1.648 0.39906,0.66548 1.2072,0.71726 2.0441,0.72603 l 6.9314,0.0475 c 2.9993,-0.76779 3.6864,-2.575 3.7362,-4.0855 0.0453,-1.3729 -0.25597,-2.9106 -2.2645,-3.7006 1.4938,-0.57114 2.2524,-2.3715 2.1673,-3.9202 -0.0538,-0.97873 -0.46095,-1.7669 -0.94671,-2.3229 -0.63208,-0.72337 -1.6178,-1.1066 -3.2143,-1.1627 h -6.2668 c -0.16424,-0.007 -0.32705,-0.0123 -0.48576,-0.0108 z m 0.41031,2.0045 6.0766,0.0475 c 2.8223,0.0916 2.7433,3.3605 0.8015,4.0881 -0.29001,0.10871 -0.61828,0.13795 -0.99115,0.13695 l -5.887,-0.0476 z m 0.0811,6.4973 6.0766,0.0475 c 3.2438,0.10527 2.6549,4.4084 -0.18965,4.2256 l -5.887,-0.0475 z"
           stroke-width="0.1"
           id="path535" />
      </g>
    </g>
    <g
       id="g547">
      <path
         d="m 110.76,112.65 16.058,-10.064 2.1384,3.1512 -16.446,9.6064 z"
         fill="#000090"
         stroke="#000090"
         stroke-width="0.1"
         id="path541" />
      <path
         d="m 85.97,128.68 c 7.8708,-5.7985 16.174,-11.093 24.792,-16.019 l 1.7506,2.6936 -25.242,15.503 z"
         fill="#000090"
         stroke="#000090"
         stroke-width="0.1"
         id="path543" />
      <path
         d="m 141.01,97.164 11.361,-0.0165 0.0165,2.1167 h -4.5145 v 12.717 h -2.3812 l 0.0165,-12.717 h -4.5144 z"
         fill="#ffffff"
         stroke="#ffffff"
         stroke-width="0.26458px"
         id="path545" />
    </g>
  </g>
</svg>
