<svg id="svg" version="1.1" xmlns="http://www.w3.org/2000/svg" xmlns:xlink="http://www.w3.org/1999/xlink" width="400" height="325.748502994012" viewBox="0, 0, 400,325.748502994012"><g id="svgg"><path id="path0" d="M239.316 21.846 C 239.005 22.387,238.694 22.831,238.625 22.832 C 238.556 22.833,238.500 22.940,238.500 23.071 C 238.500 23.202,238.406 23.409,238.291 23.530 C 238.066 23.767,236.750 25.817,235.528 27.833 C 235.111 28.521,234.721 29.121,234.662 29.167 C 234.603 29.212,234.339 29.625,234.075 30.083 C 233.811 30.542,233.498 31.016,233.381 31.137 C 233.263 31.258,233.167 31.430,233.167 31.519 C 233.167 31.608,233.087 31.771,232.990 31.882 C 232.893 31.993,232.221 33.021,231.497 34.167 C 230.774 35.313,230.066 36.397,229.924 36.576 C 229.783 36.755,229.667 36.964,229.667 37.041 C 229.667 37.118,229.587 37.271,229.490 37.382 C 229.393 37.493,228.721 38.521,227.997 39.667 C 227.274 40.813,226.566 41.897,226.424 42.076 C 226.283 42.255,226.167 42.464,226.167 42.541 C 226.167 42.618,226.087 42.771,225.990 42.882 C 225.893 42.993,225.219 44.021,224.494 45.167 C 223.768 46.313,223.097 47.362,223.002 47.500 C 222.583 48.109,220.846 50.847,220.254 51.833 C 219.896 52.429,219.562 52.954,219.510 53.000 C 219.459 53.046,219.342 53.213,219.250 53.371 C 219.038 53.737,216.882 57.171,215.769 58.917 C 215.301 59.650,214.825 60.349,214.709 60.470 C 214.594 60.591,214.500 60.763,214.500 60.852 C 214.500 60.941,214.420 61.105,214.323 61.215 C 214.226 61.326,213.554 62.354,212.831 63.500 C 212.107 64.646,211.399 65.730,211.257 65.909 C 211.116 66.088,211.000 66.297,211.000 66.374 C 211.000 66.451,210.920 66.605,210.823 66.715 C 210.726 66.826,210.054 67.854,209.331 69.000 C 208.607 70.146,207.899 71.230,207.757 71.409 C 207.616 71.588,207.500 71.797,207.500 71.874 C 207.500 71.951,207.420 72.105,207.323 72.215 C 207.226 72.326,206.556 73.354,205.833 74.500 C 205.111 75.646,204.459 76.662,204.385 76.759 C 204.311 76.856,204.175 77.062,204.083 77.217 C 203.992 77.372,203.495 78.155,202.979 78.958 C 202.047 80.407,199.826 83.945,199.448 84.583 C 199.339 84.767,199.208 84.954,199.156 85.000 C 199.105 85.046,198.772 85.571,198.416 86.167 C 198.060 86.763,197.334 87.912,196.801 88.720 C 196.269 89.529,195.833 90.226,195.833 90.269 C 195.833 90.312,195.754 90.438,195.657 90.549 C 195.559 90.659,194.888 91.688,194.164 92.833 C 193.440 93.979,192.732 95.063,192.591 95.242 C 192.449 95.421,192.333 95.631,192.333 95.708 C 192.333 95.784,192.254 95.938,192.157 96.049 C 192.059 96.159,191.389 97.188,190.667 98.333 C 189.944 99.479,189.274 100.507,189.177 100.618 C 189.080 100.729,189.000 100.882,189.000 100.959 C 189.000 101.036,188.884 101.245,188.743 101.424 C 188.601 101.603,187.893 102.688,187.169 103.833 C 186.446 104.979,185.793 105.996,185.718 106.092 C 185.644 106.189,185.494 106.414,185.386 106.592 C 184.807 107.542,182.671 110.939,181.855 112.209 C 181.339 113.011,180.842 113.799,180.750 113.959 C 180.658 114.119,180.541 114.287,180.490 114.333 C 180.439 114.379,180.056 114.979,179.639 115.667 C 178.664 117.276,177.112 119.726,177.000 119.833 C 176.892 119.937,175.376 122.327,174.357 124.000 C 173.938 124.688,173.532 125.325,173.454 125.417 C 173.377 125.508,172.722 126.521,172.000 127.667 C 171.278 128.813,170.607 129.841,170.510 129.951 C 170.413 130.062,170.333 130.225,170.333 130.314 C 170.333 130.403,170.239 130.575,170.125 130.696 C 169.908 130.925,169.069 132.233,166.778 135.917 C 166.036 137.108,165.385 138.121,165.330 138.167 C 165.275 138.212,164.889 138.813,164.472 139.500 C 163.250 141.516,161.934 143.566,161.709 143.804 C 161.594 143.925,161.500 144.097,161.500 144.186 C 161.500 144.275,161.420 144.438,161.323 144.549 C 161.226 144.659,160.556 145.688,159.833 146.833 C 159.111 147.979,158.458 148.992,158.382 149.083 C 158.138 149.378,156.667 151.792,156.667 151.898 C 156.667 151.954,161.504 152.000,167.417 152.000 C 173.361 152.000,178.167 152.065,178.167 152.144 C 178.167 152.224,178.482 152.228,178.875 152.152 C 179.265 152.076,180.096 152.011,180.722 152.007 L 181.860 152.000 181.744 152.542 C 181.680 152.840,181.570 153.158,181.500 153.250 C 181.430 153.342,181.317 153.679,181.250 154.000 C 181.183 154.321,181.069 154.658,180.997 154.750 C 180.889 154.887,180.584 155.832,180.404 156.583 C 180.355 156.787,175.504 171.183,175.012 172.583 C 174.819 173.133,174.209 174.971,173.656 176.667 C 173.103 178.362,172.589 179.865,172.513 180.005 C 172.438 180.146,172.319 180.519,172.250 180.833 C 172.181 181.148,172.066 181.521,171.996 181.661 C 171.925 181.802,171.170 184.054,170.317 186.667 C 169.465 189.279,168.452 192.317,168.067 193.417 C 167.682 194.517,166.912 196.804,166.356 198.500 C 164.386 204.508,161.493 213.087,161.352 213.339 C 161.273 213.479,161.153 213.854,161.085 214.172 C 161.017 214.490,160.904 214.825,160.833 214.917 C 160.763 215.008,160.650 215.346,160.583 215.667 C 160.516 215.987,160.404 216.325,160.333 216.417 C 160.263 216.508,160.150 216.846,160.083 217.167 C 160.016 217.487,159.888 217.841,159.798 217.953 C 159.138 218.774,160.222 218.182,163.002 216.204 C 176.807 206.384,191.980 196.600,207.500 187.509 C 215.570 182.782,216.180 182.421,217.917 181.334 C 218.833 180.760,219.696 180.182,219.833 180.051 C 219.971 179.919,219.402 180.228,218.568 180.739 L 217.053 181.667 214.027 181.667 C 212.193 181.667,211.000 181.603,211.000 181.506 C 211.000 181.417,211.114 181.010,211.253 180.599 C 211.392 180.189,211.574 179.531,211.656 179.135 C 211.738 178.740,212.043 177.592,212.333 176.583 C 212.623 175.575,212.934 174.412,213.023 174.000 C 213.113 173.588,213.254 173.100,213.338 172.917 C 213.421 172.733,213.684 171.796,213.921 170.833 C 214.159 169.871,214.456 168.671,214.581 168.167 C 214.705 167.662,214.930 166.837,215.079 166.333 C 215.228 165.829,215.460 165.042,215.595 164.583 C 215.730 164.125,215.955 163.375,216.096 162.917 C 216.236 162.458,216.396 161.896,216.451 161.667 C 216.505 161.438,216.632 161.195,216.733 161.128 C 216.862 161.041,216.858 161.004,216.717 161.003 C 216.575 161.001,216.560 160.868,216.664 160.542 C 216.745 160.290,217.757 157.008,218.912 153.250 C 221.247 145.659,223.524 138.637,223.987 137.597 C 224.154 137.223,224.532 136.242,224.829 135.417 C 225.125 134.592,225.434 133.767,225.515 133.583 C 225.596 133.400,226.041 132.237,226.503 131.000 C 226.965 129.762,227.454 128.514,227.588 128.225 C 227.723 127.936,227.833 127.626,227.833 127.536 C 227.833 127.445,227.945 127.157,228.082 126.894 C 228.219 126.631,228.332 126.290,228.332 126.135 C 228.333 125.980,228.408 125.807,228.500 125.750 C 228.592 125.693,228.667 125.532,228.667 125.390 C 228.667 125.249,228.777 124.897,228.912 124.609 C 229.047 124.320,229.648 122.771,230.247 121.167 C 230.846 119.563,231.403 118.100,231.484 117.917 C 231.674 117.485,232.575 115.097,233.152 113.493 C 233.401 112.801,233.646 112.164,233.696 112.076 C 233.746 111.988,233.839 111.702,233.901 111.440 L 234.016 110.963 232.383 111.062 C 231.485 111.117,229.325 111.203,227.583 111.254 C 225.842 111.305,223.292 111.416,221.917 111.500 C 220.542 111.585,218.279 111.698,216.888 111.751 L 214.359 111.849 214.580 111.049 C 214.786 110.302,215.315 108.462,215.936 106.333 C 216.083 105.829,216.299 105.117,216.415 104.750 C 216.532 104.383,216.679 103.821,216.740 103.500 C 216.802 103.179,216.917 102.767,216.995 102.583 C 217.074 102.400,217.214 101.950,217.307 101.583 C 217.400 101.217,217.587 100.542,217.722 100.083 C 217.857 99.625,218.319 98.050,218.749 96.583 C 219.178 95.117,219.641 93.542,219.777 93.083 C 219.913 92.625,220.100 91.950,220.193 91.583 C 220.286 91.217,220.424 90.767,220.500 90.583 C 220.576 90.400,220.714 89.950,220.807 89.583 C 220.900 89.217,221.099 88.504,221.250 88.000 C 221.401 87.496,221.600 86.783,221.693 86.417 C 221.786 86.050,221.924 85.600,222.000 85.417 C 222.076 85.233,222.214 84.783,222.307 84.417 C 222.400 84.050,222.587 83.375,222.722 82.917 C 222.939 82.181,224.143 78.072,224.748 76.000 C 224.869 75.587,225.162 74.575,225.401 73.750 C 226.205 70.972,226.369 70.419,226.601 69.703 C 226.729 69.310,226.833 68.853,226.833 68.689 C 226.833 68.524,226.890 68.333,226.958 68.264 C 227.027 68.195,227.170 67.789,227.277 67.361 C 227.383 66.933,227.584 66.208,227.723 65.750 C 227.862 65.292,228.212 64.092,228.500 63.083 C 228.788 62.075,229.131 60.894,229.262 60.458 C 229.653 59.159,229.943 58.167,230.397 56.583 C 230.633 55.758,230.896 54.858,230.981 54.583 C 231.158 54.011,231.731 52.015,232.105 50.667 C 232.245 50.163,232.423 49.563,232.500 49.333 C 232.577 49.104,232.757 48.504,232.901 48.000 C 233.318 46.531,234.678 41.826,234.947 40.917 C 235.083 40.458,235.296 39.708,235.420 39.250 C 235.544 38.792,235.768 38.004,235.918 37.500 C 236.068 36.996,236.267 36.283,236.360 35.917 C 236.453 35.550,236.591 35.100,236.667 34.917 C 236.743 34.733,236.881 34.283,236.974 33.917 C 237.130 33.300,237.244 32.905,237.905 30.708 C 238.035 30.273,238.378 29.092,238.667 28.083 C 239.162 26.350,239.293 25.907,239.931 23.792 C 240.636 21.453,240.663 21.219,240.255 21.033 C 239.915 20.878,239.833 20.949,239.316 21.846 M251.250 160.262 L 250.750 160.690 251.292 160.392 C 251.590 160.229,251.833 160.036,251.833 159.964 C 251.833 159.775,251.801 159.791,251.250 160.262 M246.958 162.929 C 246.335 163.267,246.373 163.407,247.000 163.083 C 247.275 162.941,247.500 162.789,247.500 162.746 C 247.500 162.638,247.482 162.645,246.958 162.929 M238.208 168.370 C 238.002 168.470,237.833 168.616,237.833 168.696 C 237.833 168.776,238.021 168.718,238.250 168.568 C 238.861 168.167,238.840 168.066,238.208 168.370 M237.137 169.052 C 237.016 169.172,236.372 169.594,235.705 169.990 C 235.039 170.385,234.442 170.793,234.378 170.896 C 234.315 170.999,234.464 170.952,234.710 170.791 C 234.955 170.631,235.721 170.156,236.411 169.737 C 237.102 169.318,237.667 168.943,237.667 168.904 C 237.667 168.754,237.347 168.843,237.137 169.052 M248.708 172.428 C 248.319 172.661,248.000 172.892,248.000 172.940 C 248.000 173.030,249.124 172.391,249.408 172.140 C 249.695 171.887,249.428 171.996,248.708 172.428 M224.500 177.018 C 223.904 177.393,223.342 177.781,223.250 177.880 C 223.158 177.980,223.271 177.946,223.500 177.804 C 223.729 177.663,224.310 177.305,224.792 177.009 C 225.534 176.553,225.812 176.328,225.625 176.335 C 225.602 176.336,225.096 176.643,224.500 177.018 M222.083 178.522 C 221.625 178.806,221.175 179.115,221.083 179.209 C 220.899 179.399,222.047 178.746,222.681 178.300 C 223.346 177.833,222.974 177.971,222.083 178.522 M235.247 180.321 C 228.085 184.484,218.778 189.963,217.333 190.866 C 215.673 191.904,210.385 195.150,202.250 200.125 C 200.233 201.359,198.133 202.652,197.583 203.000 C 197.033 203.348,194.933 204.642,192.917 205.875 C 186.922 209.542,173.230 217.950,171.171 219.229 L 169.259 220.417 173.963 220.461 C 178.312 220.502,178.887 220.557,178.542 220.903 C 178.473 220.971,178.330 221.378,178.223 221.805 C 178.117 222.233,177.918 222.958,177.782 223.417 C 177.079 225.779,176.614 227.284,176.495 227.583 C 176.422 227.767,176.289 228.217,176.199 228.583 C 176.002 229.388,175.181 232.118,174.995 232.583 C 174.922 232.767,174.786 233.217,174.694 233.583 C 174.602 233.950,174.286 235.037,173.993 236.000 C 173.439 237.816,173.184 238.669,172.775 240.083 C 172.126 242.327,171.619 243.945,171.483 244.206 C 171.401 244.365,171.333 244.599,171.333 244.725 C 171.333 244.851,171.115 245.658,170.849 246.519 C 170.582 247.379,170.199 248.646,169.997 249.333 C 169.533 250.911,169.299 251.690,168.691 253.667 C 168.424 254.537,168.078 255.700,167.922 256.250 C 167.767 256.800,167.573 257.438,167.491 257.667 C 167.409 257.896,167.108 258.908,166.823 259.917 C 166.322 261.686,166.118 262.384,165.583 264.167 C 165.446 264.625,165.221 265.375,165.083 265.833 C 164.946 266.292,164.729 267.023,164.602 267.458 C 164.474 267.894,164.174 268.887,163.934 269.667 C 163.387 271.442,163.283 271.789,162.837 273.333 C 162.638 274.021,162.411 274.771,162.333 275.000 C 162.255 275.229,162.030 275.979,161.833 276.667 C 161.636 277.354,161.411 278.104,161.333 278.333 C 161.255 278.563,161.030 279.313,160.833 280.000 C 160.636 280.688,160.411 281.438,160.333 281.667 C 160.255 281.896,160.030 282.646,159.833 283.333 C 159.636 284.021,159.411 284.771,159.333 285.000 C 159.255 285.229,159.030 285.979,158.833 286.667 C 158.636 287.354,158.411 288.104,158.333 288.333 C 158.255 288.563,158.030 289.313,157.833 290.000 C 157.636 290.688,157.411 291.438,157.333 291.667 C 157.255 291.896,157.030 292.646,156.833 293.333 C 156.636 294.021,156.411 294.771,156.333 295.000 C 156.255 295.229,156.030 295.979,155.833 296.667 C 155.636 297.354,155.411 298.104,155.333 298.333 C 155.255 298.563,155.030 299.313,154.833 300.000 C 154.636 300.688,154.411 301.438,154.333 301.667 C 154.255 301.896,154.030 302.646,153.833 303.333 C 153.636 304.021,153.411 304.771,153.333 305.000 C 153.255 305.229,153.031 305.979,152.835 306.667 C 152.640 307.354,152.409 308.089,152.323 308.300 C 151.940 309.237,152.782 309.598,153.263 308.704 C 153.439 308.376,153.662 308.027,153.757 307.929 C 153.853 307.831,154.224 307.262,154.581 306.667 C 154.938 306.071,155.277 305.546,155.335 305.500 C 155.393 305.454,155.490 305.304,155.550 305.167 C 155.658 304.917,159.033 299.733,159.293 299.417 C 159.368 299.325,159.724 298.762,160.083 298.167 C 160.443 297.571,160.801 297.008,160.879 296.917 C 161.034 296.734,163.046 293.658,164.640 291.167 C 165.197 290.296,165.716 289.508,165.793 289.417 C 165.870 289.325,165.985 289.137,166.048 289.000 C 166.111 288.862,166.615 288.075,167.167 287.250 C 167.719 286.425,168.220 285.637,168.281 285.500 C 168.342 285.362,168.440 285.212,168.498 285.167 C 168.556 285.121,168.896 284.596,169.254 284.000 C 169.611 283.404,169.967 282.842,170.044 282.750 C 170.121 282.658,170.890 281.496,171.753 280.167 C 172.616 278.837,173.384 277.675,173.459 277.583 C 173.535 277.492,173.890 276.929,174.250 276.333 C 174.610 275.737,174.965 275.175,175.041 275.083 C 175.300 274.767,178.675 269.583,178.784 269.333 C 178.843 269.196,178.940 269.046,178.998 269.000 C 179.056 268.954,179.396 268.429,179.754 267.833 C 180.111 267.237,180.467 266.675,180.545 266.583 C 180.797 266.285,183.080 262.772,183.576 261.919 C 183.842 261.462,184.124 261.012,184.202 260.919 C 184.332 260.766,186.095 258.069,188.181 254.833 C 188.625 254.146,189.065 253.493,189.160 253.382 C 189.255 253.271,189.333 253.108,189.333 253.019 C 189.333 252.930,189.428 252.758,189.545 252.637 C 189.661 252.516,190.484 251.292,191.374 249.917 C 192.263 248.542,193.052 247.342,193.127 247.250 C 193.202 247.158,193.557 246.596,193.917 246.000 C 194.276 245.404,194.632 244.842,194.708 244.750 C 194.833 244.598,196.677 241.775,198.681 238.667 C 199.125 237.979,199.565 237.326,199.660 237.215 C 199.755 237.105,199.833 236.973,199.833 236.923 C 199.833 236.873,200.358 236.040,201.000 235.072 C 201.642 234.103,202.167 233.247,202.167 233.169 C 202.167 233.092,202.227 233.003,202.300 232.972 C 202.374 232.942,202.727 232.429,203.086 231.833 C 203.444 231.237,203.799 230.675,203.874 230.583 C 203.996 230.435,205.432 228.238,207.850 224.500 C 208.295 223.813,208.773 223.103,208.913 222.924 C 209.052 222.745,209.167 222.508,209.167 222.397 C 209.167 222.285,209.224 222.169,209.294 222.139 C 209.364 222.108,210.149 220.958,211.039 219.583 C 211.929 218.208,212.719 217.008,212.794 216.917 C 212.868 216.825,213.224 216.262,213.583 215.667 C 213.943 215.071,214.299 214.508,214.375 214.417 C 214.548 214.208,216.958 210.481,217.501 209.583 C 217.723 209.217,218.001 208.818,218.119 208.696 C 218.237 208.575,218.333 208.375,218.333 208.252 C 218.333 208.129,218.390 208.003,218.458 207.972 C 218.527 207.942,218.856 207.504,219.190 207.000 C 221.167 204.011,221.833 202.961,221.833 202.835 C 221.833 202.758,221.894 202.669,221.967 202.639 C 222.041 202.608,222.394 202.096,222.752 201.500 C 223.111 200.904,223.466 200.342,223.542 200.250 C 223.617 200.158,224.042 199.521,224.485 198.833 C 225.328 197.527,228.210 193.100,228.501 192.667 C 228.593 192.529,229.057 191.817,229.532 191.083 C 230.008 190.350,230.832 189.088,231.365 188.280 C 231.898 187.471,232.333 186.740,232.333 186.655 C 232.333 186.570,232.390 186.500,232.458 186.500 C 232.527 186.500,232.804 186.106,233.074 185.625 C 233.521 184.829,234.938 182.634,236.464 180.375 C 237.256 179.203,237.177 179.199,235.247 180.321 " stroke="none" fill="#9b9b9b" fill-rule="evenodd"></path><path id="path1" d="M377.273 56.924 C 377.018 57.327,376.458 58.141,376.029 58.732 C 375.601 59.324,375.137 59.972,375.000 60.174 C 374.863 60.376,374.673 60.625,374.580 60.729 C 374.486 60.832,374.240 61.142,374.033 61.417 C 373.826 61.692,373.490 62.131,373.287 62.394 C 372.704 63.145,370.138 66.241,370.022 66.333 C 369.964 66.379,369.279 67.128,368.500 67.998 C 366.687 70.021,363.480 73.237,361.680 74.836 C 360.908 75.522,360.074 76.271,359.827 76.500 C 359.580 76.729,359.012 77.226,358.564 77.603 C 358.116 77.981,357.375 78.607,356.917 78.995 C 355.846 79.901,355.592 80.110,354.584 80.917 C 353.746 81.587,353.545 81.750,353.107 82.115 C 352.712 82.444,347.411 86.398,347.004 86.667 C 346.796 86.804,346.540 86.998,346.436 87.097 C 346.332 87.196,344.410 88.491,342.165 89.974 C 339.920 91.457,337.937 92.782,337.758 92.918 C 337.579 93.055,337.341 93.167,337.230 93.167 C 337.119 93.167,337.003 93.226,336.972 93.298 C 336.917 93.428,333.262 95.712,332.543 96.066 C 332.337 96.167,332.169 96.306,332.168 96.375 C 332.167 96.444,332.084 96.500,331.982 96.500 C 331.880 96.500,330.864 97.063,329.723 97.750 C 328.582 98.438,327.619 99.000,327.582 99.000 C 327.545 99.000,327.118 99.235,326.632 99.522 C 326.147 99.810,325.337 100.269,324.833 100.542 C 324.329 100.815,323.542 101.246,323.083 101.500 C 318.196 104.206,309.459 108.609,303.417 111.413 C 302.683 111.753,301.521 112.296,300.833 112.618 C 297.374 114.242,295.338 115.167,295.225 115.167 C 295.179 115.167,294.595 115.429,293.928 115.750 C 293.261 116.071,292.672 116.333,292.619 116.333 C 292.566 116.333,292.012 116.564,291.387 116.847 C 290.761 117.129,289.987 117.472,289.667 117.608 C 289.346 117.744,288.933 117.922,288.750 118.003 C 288.567 118.084,287.667 118.458,286.750 118.833 C 285.833 119.209,284.933 119.584,284.750 119.666 C 284.567 119.748,284.042 119.973,283.583 120.167 C 283.125 120.360,282.600 120.585,282.417 120.667 C 281.460 121.093,280.496 121.487,279.750 121.756 C 279.292 121.922,278.842 122.107,278.750 122.168 C 278.658 122.229,278.096 122.453,277.500 122.667 C 276.904 122.880,276.342 123.105,276.250 123.167 C 276.158 123.228,275.596 123.453,275.000 123.667 C 274.404 123.880,273.842 124.104,273.750 124.165 C 273.658 124.226,273.208 124.411,272.750 124.577 C 272.292 124.743,271.617 125.008,271.250 125.167 C 270.883 125.326,269.721 125.776,268.667 126.167 C 267.612 126.558,266.450 127.008,266.083 127.168 C 265.717 127.327,263.242 128.261,260.583 129.243 C 257.925 130.225,255.620 131.097,255.461 131.181 C 255.301 131.265,255.088 131.333,254.986 131.333 C 254.884 131.333,254.564 131.442,254.275 131.575 C 253.986 131.708,253.188 132.015,252.500 132.258 C 251.813 132.501,250.237 133.061,249.000 133.502 C 247.762 133.943,246.487 134.392,246.167 134.499 C 245.846 134.606,245.433 134.756,245.250 134.831 C 245.067 134.906,244.429 135.132,243.833 135.333 C 243.237 135.535,242.600 135.759,242.417 135.832 C 241.803 136.077,239.268 136.964,237.417 137.582 C 236.408 137.918,235.433 138.255,235.250 138.330 C 235.067 138.406,234.429 138.632,233.833 138.833 C 233.237 139.035,232.600 139.263,232.417 139.340 C 232.233 139.418,229.871 140.215,227.167 141.112 C 224.463 142.008,222.222 142.759,222.187 142.781 C 222.153 142.802,221.461 144.979,220.650 147.618 C 219.840 150.257,218.584 154.329,217.859 156.667 C 216.401 161.371,216.400 161.383,217.754 160.924 C 218.171 160.782,218.655 160.667,218.829 160.667 C 219.004 160.667,219.193 160.592,219.250 160.500 C 219.307 160.408,219.496 160.333,219.671 160.333 C 219.845 160.333,220.310 160.229,220.703 160.101 C 221.095 159.974,221.829 159.753,222.333 159.610 C 222.838 159.467,223.813 159.191,224.500 158.996 C 225.188 158.801,225.938 158.578,226.167 158.500 C 226.396 158.422,227.146 158.197,227.833 158.000 C 228.521 157.803,229.271 157.578,229.500 157.500 C 229.729 157.422,230.479 157.195,231.167 156.997 C 232.899 156.496,233.114 156.430,235.750 155.598 C 237.033 155.193,239.321 154.472,240.833 153.997 C 242.346 153.522,243.733 153.073,243.917 153.000 C 244.100 152.927,245.450 152.480,246.917 152.006 C 248.383 151.532,250.071 150.970,250.667 150.758 C 251.262 150.546,252.950 149.985,254.417 149.511 C 255.883 149.037,257.233 148.580,257.417 148.495 C 257.857 148.292,261.628 146.906,262.908 146.477 C 263.463 146.291,264.142 146.042,264.417 145.923 C 264.692 145.804,265.292 145.576,265.750 145.416 C 266.208 145.256,266.808 145.024,267.083 144.901 C 267.358 144.777,268.596 144.299,269.833 143.836 C 271.071 143.374,272.233 142.925,272.417 142.839 C 272.600 142.752,273.725 142.301,274.917 141.837 C 276.108 141.372,277.233 140.923,277.417 140.838 C 277.600 140.754,278.125 140.527,278.583 140.333 C 279.042 140.140,279.567 139.915,279.750 139.833 C 279.933 139.750,280.721 139.424,281.500 139.108 C 282.279 138.791,283.442 138.295,284.083 138.005 C 285.605 137.319,285.764 137.249,286.750 136.836 C 287.208 136.643,287.808 136.366,288.083 136.219 C 289.153 135.649,288.082 136.407,283.833 139.230 C 281.404 140.843,279.342 142.223,279.250 142.295 C 279.158 142.368,278.783 142.609,278.417 142.832 C 278.050 143.054,277.725 143.295,277.694 143.368 C 277.664 143.441,277.577 143.500,277.501 143.500 C 277.385 143.500,276.463 144.067,275.333 144.832 C 275.026 145.040,272.832 146.459,271.227 147.488 C 270.572 147.907,269.309 148.700,268.420 149.250 C 267.531 149.800,266.703 150.344,266.581 150.458 C 266.458 150.573,266.292 150.667,266.212 150.667 C 266.133 150.667,265.921 150.781,265.742 150.921 C 265.563 151.060,264.817 151.563,264.083 152.039 C 263.350 152.514,262.675 152.967,262.583 153.045 C 262.492 153.123,261.479 153.778,260.333 154.500 C 259.188 155.222,258.171 155.874,258.074 155.948 C 257.978 156.023,257.753 156.173,257.574 156.283 C 254.049 158.451,252.076 159.717,251.917 159.911 C 251.752 160.110,249.046 161.833,248.896 161.833 C 248.854 161.833,248.663 161.979,248.472 162.157 C 248.280 162.336,247.588 162.746,246.934 163.069 C 246.279 163.393,244.920 164.178,243.914 164.814 C 242.907 165.450,241.335 166.444,240.421 167.023 C 239.506 167.602,238.634 168.199,238.484 168.350 C 238.150 168.683,234.047 171.223,233.776 171.264 C 233.528 171.301,230.768 173.043,230.694 173.208 C 230.664 173.277,230.538 173.333,230.415 173.333 C 230.291 173.333,230.088 173.427,229.963 173.542 C 229.720 173.764,229.696 173.780,227.917 174.853 C 227.275 175.240,226.725 175.619,226.694 175.695 C 226.664 175.771,226.536 175.833,226.410 175.833 C 226.283 175.833,226.008 176.013,225.798 176.232 C 225.345 176.705,221.342 179.221,221.042 179.222 C 220.927 179.222,220.833 179.270,220.833 179.329 C 220.833 179.493,216.738 182.119,214.000 183.711 C 194.610 194.984,180.543 203.878,166.625 213.667 C 164.083 215.454,161.309 217.384,160.460 217.956 C 159.611 218.528,158.835 219.063,158.736 219.145 C 158.637 219.227,157.999 219.690,157.320 220.173 C 156.640 220.656,156.046 221.096,156.000 221.150 C 155.954 221.205,155.204 221.733,154.333 222.323 C 153.462 222.913,152.321 223.700,151.797 224.073 C 150.321 225.122,147.453 227.200,147.258 227.361 C 147.031 227.548,142.972 230.507,142.492 230.833 C 142.291 230.971,142.041 231.161,141.938 231.255 C 141.835 231.350,141.487 231.611,141.167 231.834 C 140.474 232.317,140.420 232.359,139.667 232.999 C 139.346 233.272,139.032 233.496,138.970 233.497 C 138.908 233.499,138.758 233.597,138.637 233.715 C 138.516 233.833,137.292 234.782,135.917 235.822 C 134.542 236.863,133.342 237.800,133.250 237.905 C 133.158 238.010,132.821 238.277,132.500 238.498 C 132.179 238.719,131.879 238.944,131.833 238.996 C 131.787 239.048,131.225 239.501,130.583 240.002 C 129.942 240.503,129.332 240.988,129.229 241.081 C 129.008 241.280,128.443 241.748,125.000 244.584 C 123.579 245.753,122.341 246.794,122.248 246.897 C 122.156 246.999,121.593 247.495,120.998 247.998 C 120.403 248.501,119.832 248.988,119.729 249.081 C 119.096 249.651,117.351 251.198,117.000 251.500 C 112.081 255.733,101.416 266.433,98.229 270.333 C 97.967 270.654,97.668 270.992,97.565 271.083 C 97.338 271.286,94.060 275.226,93.415 276.071 C 92.498 277.273,93.318 276.905,94.933 275.391 C 95.309 275.038,96.095 274.337,96.680 273.833 C 97.265 273.329,97.862 272.804,98.007 272.667 C 98.151 272.529,98.745 272.004,99.327 271.500 C 99.909 270.996,100.467 270.508,100.569 270.417 C 101.015 270.014,102.166 269.024,102.992 268.333 C 103.485 267.921,103.970 267.507,104.069 267.413 C 104.169 267.320,104.625 266.949,105.083 266.588 C 105.542 266.228,105.992 265.855,106.083 265.759 C 106.175 265.662,106.625 265.283,107.083 264.917 C 107.542 264.550,108.067 264.125,108.250 263.973 C 108.433 263.820,108.921 263.420,109.333 263.084 C 111.134 261.617,111.389 261.408,111.564 261.248 C 111.666 261.155,112.275 260.669,112.917 260.169 C 113.558 259.668,114.121 259.217,114.167 259.167 C 114.212 259.116,114.775 258.666,115.417 258.167 C 116.058 257.667,116.621 257.217,116.667 257.166 C 116.712 257.115,117.425 256.553,118.250 255.917 C 119.075 255.281,119.849 254.665,119.970 254.547 C 120.091 254.429,120.241 254.332,120.304 254.330 C 120.366 254.328,120.717 254.064,121.083 253.743 C 121.450 253.421,122.050 252.954,122.417 252.705 C 122.783 252.455,123.121 252.213,123.167 252.166 C 123.212 252.120,123.700 251.749,124.250 251.344 C 124.800 250.938,125.287 250.563,125.333 250.511 C 125.379 250.458,125.723 250.208,126.097 249.954 C 126.472 249.701,126.923 249.363,127.100 249.205 C 127.277 249.046,127.691 248.729,128.020 248.500 C 128.349 248.271,128.835 247.914,129.101 247.707 C 129.675 247.259,134.307 243.859,134.832 243.500 C 135.033 243.362,135.337 243.137,135.507 243.000 C 135.678 242.862,136.312 242.412,136.917 242.000 C 137.522 241.588,138.156 241.137,138.326 241.000 C 138.496 240.862,138.774 240.655,138.943 240.540 C 139.112 240.424,139.775 239.956,140.417 239.500 C 141.058 239.044,141.724 238.576,141.895 238.460 C 142.067 238.345,142.292 238.173,142.395 238.079 C 142.565 237.925,144.559 236.567,148.000 234.262 C 148.688 233.801,149.287 233.385,149.333 233.337 C 149.379 233.289,149.867 232.951,150.417 232.586 C 150.967 232.220,151.454 231.879,151.500 231.827 C 151.546 231.775,151.883 231.553,152.250 231.333 C 152.617 231.114,152.954 230.889,153.000 230.833 C 153.046 230.778,153.383 230.553,153.750 230.333 C 154.117 230.114,154.454 229.893,154.500 229.842 C 154.546 229.791,155.033 229.450,155.583 229.084 C 156.133 228.718,156.682 228.324,156.804 228.209 C 156.925 228.094,157.131 228.000,157.262 228.000 C 157.393 228.000,157.500 227.942,157.500 227.871 C 157.500 227.800,157.776 227.594,158.113 227.413 C 158.450 227.232,158.806 227.004,158.904 226.908 C 159.003 226.812,160.096 226.121,161.333 225.373 C 162.571 224.625,163.921 223.786,164.333 223.507 C 164.746 223.229,165.171 223.001,165.278 223.001 C 165.385 223.000,165.497 222.938,165.528 222.861 C 165.558 222.785,166.146 222.399,166.833 222.004 C 167.521 221.609,168.533 220.971,169.083 220.586 C 169.633 220.201,171.246 219.173,172.667 218.301 C 174.088 217.429,178.400 214.781,182.250 212.417 C 186.100 210.052,190.900 207.108,192.917 205.875 C 194.933 204.642,197.033 203.348,197.583 203.000 C 198.133 202.652,200.233 201.359,202.250 200.125 C 210.085 195.333,215.670 191.906,217.667 190.665 C 218.813 189.953,222.487 187.777,225.833 185.830 C 229.179 183.883,232.636 181.856,233.516 181.325 C 234.395 180.795,235.708 180.043,236.432 179.656 C 238.967 178.300,239.200 178.168,242.191 176.389 C 243.166 175.808,244.048 175.333,244.149 175.333 C 244.250 175.333,244.334 175.277,244.335 175.208 C 244.335 175.140,244.504 175.002,244.710 174.903 C 245.531 174.506,246.768 173.775,247.083 173.500 C 247.568 173.077,250.792 171.175,251.649 170.806 C 252.051 170.633,253.562 169.781,255.007 168.912 C 256.452 168.044,257.710 167.333,257.803 167.333 C 257.896 167.333,257.997 167.272,258.028 167.198 C 258.103 167.014,262.585 164.333,262.816 164.333 C 262.917 164.333,263.000 164.258,263.000 164.167 C 263.000 164.075,263.082 164.000,263.183 164.000 C 263.283 164.000,263.566 163.857,263.812 163.682 C 264.234 163.381,265.464 162.680,266.290 162.269 C 266.496 162.167,266.665 162.027,266.665 161.958 C 266.666 161.890,266.745 161.833,266.840 161.833 C 266.935 161.833,267.403 161.571,267.879 161.250 C 268.356 160.929,268.840 160.667,268.956 160.667 C 269.072 160.667,269.167 160.592,269.167 160.500 C 269.167 160.408,269.245 160.333,269.340 160.333 C 269.435 160.333,269.903 160.071,270.379 159.750 C 270.856 159.429,271.340 159.167,271.456 159.167 C 271.572 159.167,271.667 159.110,271.668 159.042 C 271.669 158.973,271.837 158.835,272.043 158.735 C 272.249 158.634,273.354 157.966,274.500 157.250 C 275.646 156.534,276.751 155.866,276.957 155.765 C 277.163 155.665,277.331 155.527,277.332 155.458 C 277.333 155.390,277.428 155.333,277.544 155.333 C 277.660 155.333,278.144 155.071,278.621 154.750 C 279.097 154.429,279.565 154.167,279.660 154.167 C 279.755 154.167,279.833 154.100,279.833 154.018 C 279.833 153.936,280.024 153.822,280.257 153.763 C 280.490 153.705,280.643 153.597,280.597 153.523 C 280.552 153.449,280.605 153.387,280.716 153.385 C 280.826 153.383,281.892 152.760,283.083 152.002 C 284.275 151.244,285.662 150.401,286.167 150.128 C 286.671 149.856,287.202 149.528,287.346 149.400 C 287.491 149.272,287.697 149.167,287.805 149.167 C 287.912 149.167,288.000 149.110,288.000 149.042 C 288.000 148.973,288.394 148.696,288.875 148.426 C 289.356 148.156,290.837 147.214,292.167 146.333 C 293.496 145.451,295.183 144.344,295.917 143.872 C 296.650 143.399,297.325 142.951,297.417 142.875 C 297.508 142.799,298.071 142.445,298.667 142.087 C 299.262 141.730,299.787 141.394,299.833 141.342 C 299.879 141.290,301.379 140.276,303.167 139.090 C 304.954 137.903,306.454 136.891,306.500 136.841 C 306.546 136.791,307.033 136.451,307.583 136.086 C 308.133 135.720,308.621 135.380,308.667 135.329 C 308.712 135.278,309.688 134.607,310.833 133.838 C 311.979 133.069,313.227 132.209,313.606 131.928 C 313.985 131.647,314.463 131.304,314.669 131.167 C 315.132 130.857,319.740 127.474,320.399 126.960 C 320.665 126.753,321.151 126.396,321.480 126.167 C 321.809 125.938,322.223 125.620,322.400 125.462 C 322.577 125.303,323.028 124.966,323.403 124.712 C 323.777 124.459,324.121 124.210,324.167 124.159 C 324.212 124.109,324.925 123.548,325.750 122.913 C 326.575 122.279,327.287 121.716,327.333 121.663 C 327.379 121.610,327.678 121.384,327.998 121.161 C 328.317 120.937,328.701 120.641,328.849 120.502 C 329.168 120.205,330.297 119.292,330.503 119.165 C 330.658 119.069,331.630 118.274,332.743 117.333 C 333.122 117.013,333.799 116.450,334.247 116.083 C 334.696 115.717,335.180 115.304,335.325 115.167 C 335.469 115.029,335.811 114.742,336.085 114.527 C 336.570 114.149,338.292 112.669,338.833 112.167 C 338.981 112.029,339.473 111.586,339.926 111.182 C 345.564 106.152,353.228 98.413,356.515 94.430 C 356.736 94.162,357.029 93.824,357.167 93.678 C 357.304 93.532,357.717 93.039,358.083 92.581 C 358.450 92.124,358.789 91.712,358.837 91.667 C 358.885 91.621,359.334 91.058,359.835 90.417 C 360.733 89.267,360.853 89.116,361.318 88.568 C 361.755 88.052,363.424 85.758,364.338 84.417 C 364.838 83.683,365.289 83.046,365.340 83.000 C 365.392 82.954,365.615 82.617,365.837 82.250 C 366.058 81.883,366.299 81.508,366.372 81.417 C 366.816 80.859,368.328 78.382,368.330 78.208 C 368.332 78.094,368.400 78.000,368.481 78.000 C 368.562 78.000,368.669 77.869,368.720 77.708 C 368.811 77.423,369.335 76.499,369.500 76.333 C 369.584 76.249,369.920 75.638,370.553 74.417 C 370.743 74.050,370.940 73.712,370.991 73.667 C 371.102 73.566,372.966 69.802,373.570 68.458 C 373.806 67.931,374.177 67.106,374.394 66.625 C 374.611 66.144,375.033 65.112,375.332 64.333 C 375.630 63.554,375.940 62.786,376.021 62.627 C 376.101 62.468,376.167 62.243,376.168 62.127 C 376.168 62.011,376.274 61.715,376.402 61.470 C 376.530 61.224,376.689 60.776,376.755 60.475 C 376.822 60.174,376.937 59.813,377.012 59.672 C 377.163 59.390,377.748 57.505,377.903 56.802 C 378.062 56.078,377.772 56.134,377.273 56.924 M179.992 156.508 C 179.859 156.593,179.599 156.663,179.415 156.664 C 179.231 156.666,178.068 156.994,176.832 157.394 C 175.595 157.795,174.021 158.288,173.333 158.490 C 172.646 158.692,171.933 158.920,171.750 158.997 C 171.567 159.074,171.042 159.247,170.583 159.382 C 169.548 159.686,164.656 161.229,163.083 161.746 C 162.442 161.957,161.354 162.295,160.667 162.497 C 159.979 162.700,158.217 163.240,156.750 163.699 C 155.283 164.157,153.708 164.644,153.250 164.781 C 152.792 164.918,152.267 165.092,152.083 165.167 C 151.900 165.242,151.188 165.470,150.500 165.673 C 149.813 165.876,149.100 166.102,148.917 166.174 C 148.733 166.247,147.796 166.546,146.833 166.838 C 145.871 167.130,144.446 167.576,143.667 167.828 C 142.887 168.080,141.688 168.456,141.000 168.664 C 140.313 168.872,139.600 169.101,139.417 169.173 C 139.233 169.245,138.708 169.415,138.250 169.551 C 136.988 169.926,132.327 171.417,128.500 172.669 C 126.621 173.284,124.521 173.957,123.833 174.165 C 123.146 174.372,122.433 174.601,122.250 174.673 C 122.067 174.745,121.542 174.915,121.083 175.051 C 119.942 175.390,115.065 176.935,113.333 177.506 C 112.554 177.763,111.354 178.133,110.667 178.328 C 109.979 178.524,109.286 178.755,109.127 178.842 C 108.968 178.929,108.717 179.000,108.569 179.000 C 108.421 179.000,108.064 179.102,107.775 179.227 C 107.486 179.351,106.575 179.699,105.750 179.999 C 103.702 180.743,103.000 181.054,103.000 181.216 C 103.000 181.291,102.939 181.316,102.866 181.270 C 102.759 181.204,100.755 181.833,99.333 182.379 C 99.014 182.502,95.466 183.720,93.833 184.268 C 93.146 184.499,92.433 184.750,92.250 184.827 C 92.067 184.904,91.429 185.133,90.833 185.336 C 90.237 185.539,89.514 185.809,89.225 185.936 C 88.936 186.063,88.640 186.167,88.567 186.167 C 88.394 186.167,85.671 187.149,85.294 187.348 C 85.135 187.431,84.921 187.500,84.819 187.500 C 84.717 187.500,84.397 187.603,84.109 187.730 C 83.820 187.856,83.208 188.091,82.750 188.251 C 82.292 188.411,81.692 188.637,81.417 188.752 C 81.142 188.867,79.229 189.582,77.167 190.340 C 75.104 191.099,73.345 191.783,73.258 191.860 C 73.171 191.937,72.984 192.003,72.842 192.006 C 72.700 192.009,72.283 192.156,71.917 192.333 C 71.550 192.510,71.159 192.658,71.047 192.661 C 70.936 192.664,70.598 192.777,70.297 192.912 C 69.996 193.047,68.775 193.538,67.583 194.002 C 66.392 194.467,65.192 194.947,64.917 195.069 C 64.642 195.191,64.042 195.426,63.583 195.591 C 63.125 195.756,62.675 195.940,62.583 196.000 C 62.492 196.060,62.042 196.244,61.583 196.409 C 61.125 196.574,60.525 196.807,60.250 196.928 C 59.975 197.048,58.550 197.645,57.083 198.254 C 55.617 198.863,54.004 199.551,53.500 199.782 C 52.996 200.014,52.246 200.338,51.833 200.502 C 51.042 200.817,49.310 201.589,47.917 202.248 C 47.458 202.465,46.708 202.806,46.250 203.007 C 43.025 204.418,33.898 208.864,30.833 210.515 C 29.962 210.985,28.875 211.564,28.417 211.803 C 27.841 212.102,27.675 212.256,27.878 212.298 C 28.148 212.354,29.523 211.927,29.917 211.665 C 30.008 211.604,30.571 211.380,31.167 211.167 C 31.762 210.953,32.325 210.728,32.417 210.667 C 32.508 210.605,33.071 210.380,33.667 210.167 C 34.262 209.953,34.825 209.728,34.917 209.667 C 35.008 209.605,35.571 209.380,36.167 209.167 C 36.762 208.953,37.325 208.728,37.417 208.665 C 37.508 208.603,38.483 208.232,39.583 207.840 C 40.683 207.449,41.733 207.064,41.917 206.985 C 42.670 206.659,44.919 205.833,45.054 205.833 C 45.134 205.833,45.436 205.725,45.725 205.592 C 46.247 205.352,47.616 204.864,50.000 204.069 C 50.688 203.840,51.365 203.590,51.505 203.514 C 51.646 203.438,52.019 203.319,52.333 203.250 C 52.648 203.181,53.021 203.067,53.161 202.997 C 53.302 202.927,53.979 202.701,54.667 202.495 C 55.354 202.288,56.574 201.905,57.377 201.643 C 58.181 201.381,58.975 201.167,59.141 201.167 C 59.308 201.167,59.501 201.110,59.569 201.042 C 59.638 200.973,60.044 200.829,60.472 200.722 C 62.207 200.286,62.765 200.132,63.083 200.000 C 63.267 199.924,63.735 199.780,64.125 199.681 C 64.515 199.581,65.152 199.419,65.542 199.319 C 65.931 199.220,66.400 199.076,66.583 199.000 C 66.767 198.924,67.254 198.776,67.667 198.672 C 68.401 198.486,69.160 198.281,71.000 197.773 C 71.504 197.633,72.329 197.405,72.833 197.266 C 73.696 197.027,74.286 196.868,76.500 196.273 C 77.004 196.138,78.204 195.828,79.167 195.585 C 80.129 195.341,81.067 195.077,81.250 194.997 C 81.433 194.918,81.921 194.778,82.333 194.687 C 83.247 194.485,86.900 193.536,88.833 192.997 C 89.154 192.908,90.767 192.502,92.417 192.096 C 98.438 190.611,106.932 188.491,107.500 188.330 C 107.821 188.239,108.421 188.085,108.833 187.988 C 109.246 187.891,110.033 187.701,110.583 187.564 C 111.133 187.428,111.921 187.247,112.333 187.163 C 112.746 187.079,113.346 186.933,113.667 186.840 C 114.450 186.612,117.510 185.852,118.750 185.578 C 119.300 185.457,119.900 185.317,120.083 185.268 C 120.267 185.218,121.092 185.022,121.917 184.830 C 122.742 184.639,123.679 184.413,124.000 184.328 C 124.321 184.242,125.708 183.907,127.083 183.583 C 128.458 183.259,129.733 182.952,129.917 182.901 C 130.100 182.851,130.700 182.707,131.250 182.582 C 131.800 182.458,132.737 182.234,133.333 182.086 C 133.929 181.938,134.867 181.713,135.417 181.586 C 137.778 181.042,138.636 180.831,139.500 180.582 C 140.004 180.437,140.867 180.214,141.417 180.087 C 142.441 179.850,143.979 179.484,145.750 179.056 C 146.300 178.923,146.938 178.774,147.167 178.725 C 147.396 178.676,148.633 178.385,149.917 178.079 C 151.200 177.772,152.550 177.475,152.917 177.420 C 153.283 177.364,153.846 177.247,154.167 177.161 C 154.487 177.074,155.575 176.807,156.583 176.567 C 157.592 176.328,158.484 176.091,158.567 176.041 C 158.649 175.990,158.973 175.927,159.285 175.898 C 159.598 175.870,160.093 175.769,160.385 175.674 C 160.678 175.579,162.042 175.237,163.417 174.916 C 164.792 174.594,166.179 174.259,166.500 174.172 C 167.543 173.890,172.555 172.648,173.635 172.404 C 175.296 172.030,175.188 172.186,176.487 168.294 C 177.138 166.345,178.295 162.891,179.058 160.618 C 180.406 156.604,180.501 156.187,179.992 156.508 " stroke="none" fill="#040493" fill-rule="evenodd"></path></g></svg>