<?xml version="1.0" encoding="UTF-8" standalone="no"?>
<!-- Created with Inkscape (http://www.inkscape.org/) -->

<svg
   width="163.36259mm"
   height="149.955mm"
   version="1.1"
   viewBox="0 0 163.36259 149.95501"
   id="svg180"
   sodipodi:docname="stars.svg"
   inkscape:version="1.2 (dc2aedaf03, 2022-05-15)"
   xmlns:inkscape="http://www.inkscape.org/namespaces/inkscape"
   xmlns:sodipodi="http://sodipodi.sourceforge.net/DTD/sodipodi-0.dtd"
   xmlns="http://www.w3.org/2000/svg"
   xmlns:svg="http://www.w3.org/2000/svg">
  <defs
     id="defs184" />
  <sodipodi:namedview
     id="namedview182"
     pagecolor="#555555"
     bordercolor="#000000"
     borderopacity="0.25"
     inkscape:showpageshadow="2"
     inkscape:pageopacity="0"
     inkscape:pagecheckerboard="true"
     inkscape:deskcolor="#d1d1d1"
     inkscape:document-units="mm"
     showgrid="false"
     inkscape:zoom="0.73851712"
     inkscape:cx="307.3727"
     inkscape:cy="360.18122"
     inkscape:window-width="1920"
     inkscape:window-height="1009"
     inkscape:window-x="-8"
     inkscape:window-y="-8"
     inkscape:window-maximized="1"
     inkscape:current-layer="g178" />
  <g
     transform="translate(-24.6728,-31.869)"
     id="g178">
    <path
       d="m 180.53,74.103 -0.90583,6.735 -6.1078,0.80178 6.0561,0.88196 0.98346,6.7617 0.85406,-6.735 6.6254,-0.90869 -6.5737,-0.80178 z"
       fill="#ffffff"
       stroke-width="0"
       id="path108" />
    <g
       fill="#ffffff"
       id="g168">
      <g
         stroke-width="0"
         id="g136">
        <path
           d="m 36.909,31.869 -1.1576,8.3344 -7.8052,0.99219 7.7391,1.0914 1.2568,8.3674 1.0914,-8.3344 8.4667,-1.1245 -8.4005,-0.99219 z"
           id="path120" />
        <path
           d="m 58.204,56.542 -0.6252,4.4753 -4.2156,0.53278 4.1799,0.58606 0.67879,4.4931 0.58948,-4.4753 4.5729,-0.60382 -4.5372,-0.53278 z"
           id="path122" />
        <path
           d="m 52.732,176.76 -4.2339,-0.53781 -0.56003,-4.0545 -0.4968,4.0362 -4.233,0.71899 4.2334,0.50338 0.63194,4.3977 0.44167,-4.3797 z"
           id="path124" />
        <path
           d="m 154.42,32.398 -0.61282,4.1378 -4.1322,0.4926 4.0972,0.54186 0.66534,4.1543 0.57781,-4.1378 4.4824,-0.55828 -4.4473,-0.4926 z"
           id="path126" />
        <path
           d="m 136.63,67.323 -0.60457,4.0938 -4.0765,0.48736 4.042,0.5361 0.65639,4.1101 0.57003,-4.0938 4.422,-0.55234 -4.3874,-0.48736 z"
           id="path128" />
        <path
           d="m 130.55,161.83 -0.3084,2.3581 -2.0795,0.28073 2.0619,0.30879 0.33483,2.3674 0.29077,-2.3581 2.2557,-0.31815 -2.2381,-0.28073 z"
           id="path130" />
        <path
           d="m 165.95,169.84 -0.69067,5.2632 -4.657,0.62657 4.6176,0.68923 0.74986,5.2841 0.65119,-5.2632 5.0517,-0.71011 -5.0122,-0.62657 z"
           id="path132" />
        <path
           d="m 146.67,114.51 -0.5506,4.0389 -3.7126,0.48082 3.6811,0.5289 0.59779,4.0549 0.51914,-4.0389 4.0272,-0.54493 -3.9958,-0.48082 z"
           id="path134" />
      </g>
      <g
         stroke-width="0"
         id="g152">
        <ellipse
           cx="90.273003"
           cy="173.92"
           rx="1.141"
           ry="1.1245"
           id="ellipse138" />
        <ellipse
           cx="26.128"
           cy="155.63"
           rx="1.4552"
           ry="1.3891"
           id="ellipse140" />
        <ellipse
           cx="100.34"
           cy="147.05"
           rx="0.8599"
           ry="0.87642998"
           id="ellipse142" />
        <ellipse
           cx="56.778"
           cy="134.52"
           rx="1.4304"
           ry="1.4965"
           id="ellipse144" />
        <ellipse
           cx="35.792"
           cy="77.233002"
           rx="1.6253"
           ry="1.6487"
           id="ellipse146" />
        <circle
           cx="140.63"
           cy="47.223"
           r="1.4304"
           id="circle148" />
        <ellipse
           cx="173.96001"
           cy="143.52"
           rx="1.2745"
           ry="1.2628"
           id="ellipse150" />
      </g>
      <path
         d="m 91.49824,92.02924 -0.6252,4.4753 -4.2156,0.53278 4.1799,0.58606 0.67879,4.4931 0.58948,-4.4753 4.5729,-0.60382 -4.5372,-0.53278 z"
         id="path122-1" />
      <path
         d="m 122.67271,97.474861 -0.60457,4.093799 -4.0765,0.48736 4.042,0.5361 0.65639,4.1101 0.57003,-4.0938 4.422,-0.55234 -4.3874,-0.48736 z m -27.944509,-54.814234 -0.60457,4.093801 -4.0765,0.48736 4.042,0.5361 0.65639,4.1101 0.57003,-4.0938 4.422,-0.55234 -4.3874,-0.48736 z m -48.723763,64.845593 -0.60457,4.0938 -4.0765,0.48736 4.042,0.5361 0.65639,4.1101 0.57003,-4.0938 4.422,-0.55234 -4.3874,-0.48736 z m 35.109771,42.6333 -0.60457,4.0938 -4.076501,0.48736 4.042001,0.5361 0.65639,4.1101 0.57003,-4.0938 4.422,-0.55234 -4.3874,-0.48736 z m 67.353441,-5.37395 -0.60457,4.0938 -4.0765,0.48736 4.042,0.5361 0.65639,4.1101 0.57003,-4.0938 4.422,-0.55234 -4.3874,-0.48736 z m 21.13751,-93.506631 -0.60457,4.0938 -4.0765,0.48736 4.042,0.5361 0.65639,4.1101 0.57003,-4.0938 4.422,-0.55234 -4.3874,-0.48736 z"
         id="path128-7" />
    </g>
    <path
       d="m 150.17722,90.199166 -0.90583,6.735 -6.1078,0.80178 6.0561,0.88196 0.98346,6.761704 0.85406,-6.735004 6.6254,-0.90869 -6.5737,-0.80178 z m -47.29071,29.019304 -0.90583,6.735 -6.107801,0.80178 6.056101,0.88196 0.98346,6.7617 0.85406,-6.735 6.6254,-0.90869 -6.5737,-0.80178 z m -43.349819,-36.90109 -0.90583,6.735 -6.1078,0.80178 6.0561,0.88196 0.98346,6.7617 0.85406,-6.735 6.6254,-0.90869 -6.5737,-0.80178 z"
       fill="#ffffff"
       stroke-width="0"
       id="path108-9" />
    <path
       d="m 102.10166,62.243494 -1.1576,8.3344 -7.805197,0.99219 7.739097,1.0914 1.2568,8.3674 1.0914,-8.3344 8.4667,-1.1245 -8.4005,-0.99219 z m -25.79493,57.322076 -1.1576,8.3344 -7.8052,0.99219 7.7391,1.0914 1.2568,8.3674 1.0914,-8.3344 8.4667,-1.1245 -8.4005,-0.99219 z m 95.29795,-7.88179 -1.1576,8.3344 -7.8052,0.99219 7.7391,1.0914 1.2568,8.3674 1.0914,-8.3344 8.4667,-1.1245 -8.4005,-0.99219 z"
       id="path120-3"
       style="fill:#ffffff" />
    <ellipse
       cx="80.561821"
       cy="70.919662"
       rx="0.8599"
       ry="0.87642998"
       id="ellipse142-7"
       style="fill:#ffffff" />
    <ellipse
       cx="66.231308"
       cy="42.975155"
       rx="0.8599"
       ry="0.87642998"
       id="ellipse142-1"
       style="fill:#ffffff" />
    <ellipse
       cx="126.41948"
       cy="83.45887"
       rx="0.8599"
       ry="0.87642998"
       id="ellipse142-3"
       style="fill:#ffffff" />
    <ellipse
       cx="166.54494"
       cy="79.159714"
       rx="0.8599"
       ry="0.87642998"
       id="ellipse142-18"
       style="fill:#ffffff" />
    <ellipse
       cx="140.75"
       cy="-132.54089"
       rx="0.8599"
       ry="0.87642998"
       id="ellipse142-2"
       transform="scale(1,-1)"
       style="fill:#ffffff" />
    <ellipse
       cx="183.74156"
       cy="173.38287"
       rx="1.2745"
       ry="1.2628"
       id="ellipse150-6"
       style="fill:#ffffff" />
    <ellipse
       cx="176.93456"
       cy="40.109043"
       rx="1.2745"
       ry="1.2628"
       id="ellipse150-8"
       style="fill:#ffffff" />
    <ellipse
       cx="31.838057"
       cy="111.76164"
       rx="1.2745"
       ry="1.2628"
       id="ellipse150-4"
       style="fill:#ffffff" />
  </g>
</svg>
