<?xml version="1.0" encoding="UTF-8" standalone="no"?>
<!-- Generator: Adobe Illustrator 22.0.1, SVG Export Plug-In . SVG Version: 6.00 Build 0)  -->

<svg
   version="1.1"
   id="Layer_1"
   x="0px"
   y="0px"
   width="400"
   height="400"
   viewBox="0 0 400 399.99998"
   enable-background="new 0 0 1000 223.2444"
   xml:space="preserve"
   sodipodi:docname="youtube.svg"
   inkscape:version="1.2 (dc2aedaf03, 2022-05-15)"
   xmlns:inkscape="http://www.inkscape.org/namespaces/inkscape"
   xmlns:sodipodi="http://sodipodi.sourceforge.net/DTD/sodipodi-0.dtd"
   xmlns="http://www.w3.org/2000/svg"
   xmlns:svg="http://www.w3.org/2000/svg"><defs
   id="defs58" /><sodipodi:namedview
   id="namedview56"
   pagecolor="#777777"
   bordercolor="#000000"
   borderopacity="0.25"
   inkscape:showpageshadow="2"
   inkscape:pageopacity="0.31764706"
   inkscape:pagecheckerboard="true"
   inkscape:deskcolor="#d1d1d1"
   showgrid="false"
   inkscape:zoom="1.7111984"
   inkscape:cx="376.92882"
   inkscape:cy="196.35362"
   inkscape:window-width="1920"
   inkscape:window-height="1009"
   inkscape:window-x="-8"
   inkscape:window-y="-8"
   inkscape:window-maximized="1"
   inkscape:current-layer="Layer_1" />
<g
   id="g35"
   transform="matrix(1.2455399,0,0,1.3141235,1.8140066,53.295056)"
   inkscape:transform-center-x="-5.8230099"
   inkscape:transform-center-y="9.8324839e-06">
	<path
   fill="#ff0000"
   d="M 312.25632,34.859982 C 308.5885,21.138477 297.78198,10.331947 284.06046,6.6641731 259.18942,0 159.46024,0 159.46024,0 c 0,0 -99.729214,0 -124.600228,6.6641741 C 21.138477,10.331948 10.331948,21.138477 6.6641588,34.859982 0,59.730965 0,111.6222 0,111.6222 c 0,0 0,51.89123 6.6641588,76.76221 3.6677892,13.7215 14.4743182,24.52804 28.1958542,28.19581 24.871013,6.66418 124.600227,6.66418 124.600227,6.66418 0,0 99.72918,0 124.60022,-6.66418 13.72152,-3.66777 24.52804,-14.47431 28.19586,-28.19581 6.66415,-24.87098 6.66415,-76.76221 6.66415,-76.76221 0,0 0,-51.891235 -6.66415,-76.762218 z"
   id="path31" />
	<polygon
   fill="#ffffff"
   points="210.42255,111.62357 127.56818,63.784092 127.56818,159.46024 "
   id="polygon33" />
</g>

</svg>
