<?xml version="1.0" encoding="UTF-8" standalone="no"?>
<svg
   xmlns:dc="http://purl.org/dc/elements/1.1/"
   xmlns:cc="http://creativecommons.org/ns#"
   xmlns:rdf="http://www.w3.org/1999/02/22-rdf-syntax-ns#"
   xmlns:svg="http://www.w3.org/2000/svg"
   xmlns="http://www.w3.org/2000/svg"
   xmlns:sodipodi="http://sodipodi.sourceforge.net/DTD/sodipodi-0.dtd"
   xmlns:inkscape="http://www.inkscape.org/namespaces/inkscape"
   version="1.0"
   width="3136.3555"
   height="1242.6464"
   id="svg2"
   sodipodi:docname="CCISD Logo.svg"
   inkscape:version="1.0.1 (3bc2e813f5, 2020-09-07)">
  <metadata
     id="metadata860">
    <rdf:RDF>
      <cc:Work
         rdf:about="">
        <dc:format>image/svg+xml</dc:format>
        <dc:type
           rdf:resource="http://purl.org/dc/dcmitype/StillImage" />
        <dc:title></dc:title>
      </cc:Work>
    </rdf:RDF>
  </metadata>
  <sodipodi:namedview
     pagecolor="#ffffff"
     bordercolor="#666666"
     borderopacity="1"
     objecttolerance="10"
     gridtolerance="10"
     guidetolerance="10"
     inkscape:pageopacity="0"
     inkscape:pageshadow="2"
     inkscape:window-width="1920"
     inkscape:window-height="1001"
     id="namedview858"
     showgrid="false"
     inkscape:snap-intersection-paths="true"
     inkscape:object-paths="true"
     inkscape:zoom="0.17230648"
     inkscape:cx="1364.8534"
     inkscape:cy="1145.527"
     inkscape:window-x="-9"
     inkscape:window-y="-9"
     inkscape:window-maximized="1"
     inkscape:current-layer="svg2" />
  <defs
     id="defs5" />
  <g
     id="g1551"
     transform="matrix(1.5050644,0,0,1.5050644,1059.7568,-1074.3817)"
     style="stroke:none">
    <path
       sodipodi:type="star"
       style="opacity:1;fill:#fec52e;fill-opacity:1;fill-rule:evenodd;stroke:none;stroke-width:1.2744;stroke-linecap:round;stroke-linejoin:round;stroke-miterlimit:4;stroke-dasharray:none;paint-order:fill markers stroke"
       id="path1525"
       sodipodi:sides="5"
       sodipodi:cx="336.74503"
       sodipodi:cy="1104.5327"
       sodipodi:r1="390.68835"
       sodipodi:r2="152.36845"
       sodipodi:arg1="-1.5707963"
       sodipodi:arg2="-0.9424778"
       inkscape:flatsided="false"
       inkscape:rounded="0"
       inkscape:randomized="0"
       d="m 336.74504,713.84436 89.55992,267.41969 282.00677,2.53933 -226.65569,167.81382 84.72983,268.989 -229.64084,-163.705 -229.64087,163.705 84.72985,-268.989 -226.655687,-167.81384 282.006767,-2.53931 z"
       inkscape:transform-center-y="-37.307417" />
    <path
       style="opacity:1;fill:#25317b;fill-opacity:1;fill-rule:evenodd;stroke:none;stroke-width:1.28756;stroke-linecap:round;stroke-linejoin:round;stroke-miterlimit:4;stroke-dasharray:none;paint-order:fill markers stroke"
       d="m 107.10418,1420.6062 84.72985,-268.9891 -131.947658,-97.6928 c 0.84784,-7.2466 25.340395,-12.3953 61.581018,-15.7227 35.50464,-3.2599 73.03551,-3.0174 147.73585,0.9546 46.18654,2.4558 100.58965,3.562 126.70401,2.5763 33.73624,-1.2734 46.68043,-3.4605 46.68043,-7.8875 0,-5.9231 -20.68522,-10.4452 -71.81604,-15.7002 -54.37725,-5.5886 -77.40158,-8.9459 -91.75459,-13.3791 -7.31468,-2.2593 -12.89164,-6.25445 -12.89164,-9.2352 0,-5.98886 14.68882,-14.78891 37.49268,-22.46178 14.94323,-5.02799 40.21883,-12.09815 40.0095,-11.31695 -0.21435,0.79999 -25.32595,13.91897 -31.40176,18.35203 -5.67237,4.1387 -7.17828,5.7759 -6.92512,7.52889 1.02031,7.06485 23.99826,12.45321 64.70988,15.17461 39.4844,2.6393 104.85306,9.2433 130.68841,13.2031 26.60615,4.0779 46.96895,12.7798 50.63907,21.6402 1.87466,4.5258 0.70656,10.9472 -2.62368,14.4233 -7.59854,7.9311 -30.79543,14.3194 -66.62789,18.3487 -15.53028,1.7464 -53.28248,3.9366 -124.13915,7.2022 -37.24175,1.7163 -72.67944,3.7919 -78.75041,4.6125 -10.81584,1.4619 -18.87275,4.1163 -22.52402,7.4207 -7.18127,6.499 7.39495,19.0922 32.24208,27.8559 27.53543,9.7118 103.91571,22.154 167.49447,30.7692 10.72111,1.4527 23.99579,3.0633 25.24658,3.334 l 84.72983,268.9891 -229.64084,-163.7051 z"
       id="path1533"
       sodipodi:nodetypes="cccssssssssssssssssssssscccc" />
  </g>
  <path
     style="opacity:1;fill:#25317b;fill-opacity:1;fill-rule:evenodd;stroke:none;stroke-width:1.255;stroke-linecap:round;stroke-linejoin:round;stroke-miterlimit:4;stroke-dasharray:none;paint-order:fill markers stroke"
     d="m 5.1890089,993.80427 v 60.43663 H 1165.0633 l 24.1096,-60.43663 z"
     id="path1555" />
  <path
     style="fill:#25317b;fill-opacity:1;fill-rule:evenodd;stroke:none;stroke-width:1.255;stroke-linecap:round;stroke-linejoin:round;stroke-miterlimit:4;stroke-dasharray:none;paint-order:fill markers stroke"
     d="m 3133.1596,993.80427 v 60.43663 H 1973.2853 l -24.1096,-60.43663 z"
     id="path1555-1" />
  <g
     id="g1653"
     transform="translate(-23.521858,-36.336934)">
    <path
       style="opacity:1;fill:#25317b;fill-opacity:1;fill-rule:evenodd;stroke:none;stroke-width:1.28756;stroke-linecap:round;stroke-linejoin:round;stroke-miterlimit:4;stroke-dasharray:none;paint-order:fill markers stroke"
       d="m 133.80689,960.99052 c -25.83904,-2.57892 -41.177144,-8.4121 -62.390529,-23.72757 -4.054192,-2.92701 -15.715674,-14.97487 -20.197916,-20.86714 -2.534689,-3.33205 -4.193876,-6.05159 -11.366119,-18.63002 -5.445717,-9.55049 -10.713831,-26.0743 -13.692643,-42.94792 -2.235316,-12.66206 -2.641109,-18.02822 -2.637805,-34.88207 0.0024,-12.4961 0.550261,-23.16745 1.470152,-28.6385 2.313505,-13.75959 9.433261,-35.15018 14.099603,-42.36083 1.309192,-2.02303 3.534536,-5.62137 4.945208,-7.99631 5.296718,-8.91732 12.349529,-17.57474 21.015938,-25.79736 4.919108,-4.66721 9.705096,-8.90514 10.635528,-9.41762 0.930432,-0.51248 3.099308,-2.12834 4.819725,-3.5908 3.554614,-3.02164 23.297078,-13.1003 33.292958,-16.99627 7.31732,-2.85198 12.08469,-3.74963 32.96804,-6.20751 10.60055,-1.24763 15.44546,-1.39381 20.0059,-0.60359 3.3098,0.57351 10.40371,1.31969 15.76427,1.65816 12.71187,0.80266 22.3106,2.19187 31.80424,4.60298 4.23202,1.07481 10.31352,2.46546 13.51447,3.09034 3.20094,0.62487 6.43266,1.87511 7.1816,2.7783 1.60479,1.93531 1.45835,30.06547 -0.24455,46.97848 -1.37812,13.68718 -2.46512,14.77576 -14.29695,14.31782 -4.86668,-0.18836 -9.25677,-0.9147 -10.49408,-1.73624 -1.65158,-1.09661 -3.12164,-5.41389 -6.57465,-19.30832 -2.44608,-9.84275 -4.97056,-18.89215 -5.60995,-20.10979 -0.63938,-1.21763 -4.4544,-3.92093 -8.47781,-6.00731 -5.78335,-2.99903 -9.46379,-4.08626 -17.57473,-5.1917 -33.15033,-4.51809 -54.70841,1.52071 -72.353636,20.26752 -6.013731,6.38917 -13.298251,17.37505 -14.842897,22.38476 -0.434952,1.41067 -1.584146,3.71905 -2.553763,5.12972 -4.156067,6.04656 -9.428883,28.87402 -11.374953,49.24528 -1.962511,20.54337 1.358404,60.70463 6.142594,74.28502 1.17413,3.33288 2.134781,6.71807 2.134781,7.52262 0,1.58544 5.167092,14.26155 7.845875,19.24779 5.374649,10.00429 6.353894,11.72573 7.383354,12.9794 12.568925,15.30641 20.511465,22.05847 31.771055,27.00903 7.96275,3.50101 9.03615,3.699 22.99633,4.24158 25.31399,0.98386 39.45816,-2.30325 48.24336,-11.21172 2.68028,-2.7179 4.87323,-5.37635 4.87323,-5.90769 0,-0.53133 2.49257,-6.15607 5.53905,-12.49941 3.04649,-6.34335 6.11365,-13.0586 6.81593,-14.92278 0.95329,-2.53048 2.08453,-3.56038 4.4639,-4.06403 3.77747,-0.79959 2.80486,-0.87725 10.21146,0.81534 8.94253,2.04357 9.40207,3.15972 7.3652,17.88871 -0.9064,6.5543 -2.13691,13.16766 -2.73448,14.69636 -0.59756,1.5287 -1.49076,5.90451 -1.98488,9.72401 -1.27307,9.84086 -1.88583,10.60538 -10.45503,13.04435 -4.08253,1.16198 -12.50122,3.6815 -18.70818,5.59896 -6.20695,1.91745 -13.36291,3.77213 -15.90212,4.12151 -2.53921,0.34939 -8.0793,1.12775 -12.31132,1.72969 -10.56895,1.50329 -27.03756,1.61088 -40.52476,0.26477 z"
       id="path1626" />
    <path
       style="opacity:1;fill:#25317b;fill-opacity:1;fill-rule:evenodd;stroke:none;stroke-width:1.82088;stroke-linecap:round;stroke-linejoin:round;stroke-miterlimit:4;stroke-dasharray:none;paint-order:fill markers stroke"
       d="m 259.42551,954.34787 c -2.65866,-4.05764 -1.71753,-9.65819 2.22212,-13.22353 1.45961,-1.32093 7.11382,-3.16816 12.56491,-4.10495 5.45109,-0.93679 10.72721,-2.22779 11.72471,-2.86887 1.42539,-0.91612 1.81363,-25.35047 1.81363,-114.14514 v -112.9795 l -3.82293,-3.00711 c -2.52136,-1.98331 -5.94705,-3.00712 -10.06187,-3.00712 -3.43142,0 -7.9464,-0.64917 -10.0333,-1.44261 -3.56534,-1.35554 -3.76809,-1.94668 -3.35899,-9.7936 l 0.43538,-8.35098 48.60525,-0.40515 c 26.73289,-0.22283 50.07429,-0.0472 51.86979,0.39037 2.82833,0.68922 3.26453,1.73741 3.26453,7.84474 0,8.84616 -2.078,10.68976 -12.77266,11.33196 -11.38527,0.68368 -18.8306,2.92625 -20.58241,6.19954 -0.98474,1.84001 -1.35941,40.50013 -1.11285,114.83049 l 0.3717,112.05659 3.62725,0.91314 c 4.56478,1.14914 78.79534,-2.22931 85.46481,-3.88977 2.71683,-0.6764 5.46941,-2.19515 6.11686,-3.375 2.08583,-3.80108 7.07947,-15.73261 7.08868,-16.93735 0.004,-0.64228 0.92824,-2.92991 2.05185,-5.08362 1.1236,-2.15372 3.09558,-7.37697 4.38218,-11.60722 1.28659,-4.23027 3.46709,-9.97656 4.84554,-12.76955 2.26771,-4.5948 3.15452,-5.11996 9.31677,-5.51729 4.21554,-0.27181 8.53444,0.45236 11.33506,1.90063 3.8147,1.97264 4.39415,2.95211 3.69322,6.24274 -0.93893,4.40794 -7.69626,48.89468 -9.33426,61.4519 -1.83327,14.05417 7.90679,12.81988 -101.16501,12.81988 h -96.27395 z"
       id="path1628" />
    <path
       style="opacity:1;fill:#25317b;fill-opacity:1;fill-rule:evenodd;stroke:none;stroke-width:1.82088;stroke-linecap:round;stroke-linejoin:round;stroke-miterlimit:4;stroke-dasharray:none;paint-order:fill markers stroke"
       d="m 490.05818,955.52647 c -1.21018,-3.15368 -1.06826,-11.16634 0.22971,-12.96898 1.81708,-2.52362 8.24567,-4.73984 16.87686,-5.81824 4.55083,-0.56859 9.22091,-1.98048 10.37797,-3.13753 1.80148,-1.80149 2.10374,-18.23984 2.10374,-114.41166 v -112.3079 l -3.51698,-2.30441 c -1.93434,-1.26743 -7.32082,-2.85645 -11.96995,-3.53116 -13.2371,-1.92103 -13.53113,-2.15825 -13.53113,-10.91671 0,-5.65514 0.60278,-7.90081 2.29502,-8.55019 1.26226,-0.48437 42.64187,-0.88068 91.95469,-0.88068 71.64882,0 89.97312,0.37768 91.22003,1.88012 2.19562,2.64555 4.85723,47.15802 3.02458,50.58238 -1.11617,2.08556 -3.13825,2.67182 -9.21553,2.67182 -7.35347,0 -7.95119,-0.28065 -10.76892,-5.05637 -1.64084,-2.781 -3.72457,-7.84102 -4.63051,-11.2445 -2.01081,-7.55423 -6.95,-16.67049 -9.57861,-17.67917 -1.06587,-0.40902 -19.62654,-0.84956 -41.24591,-0.97898 -32.42176,-0.1941 -39.67225,0.129 -41.38749,1.84424 -1.70509,1.70509 -2.14817,10.68693 -2.46056,49.87976 l -0.38099,47.8002 3.52244,3.26453 c 3.2571,3.01861 4.84539,3.2607 21.08415,3.21357 15.80259,-0.0459 32.64835,-2.24571 36.78778,-4.80402 0.85259,-0.52693 2.36415,-5.6895 3.35903,-11.47239 2.33538,-13.57478 4.09812,-15.59249 13.62216,-15.59249 4.10569,0 8.24839,0.78349 9.20599,1.74108 2.09976,2.09977 2.46957,74.66117 0.3972,77.93512 -0.80618,1.27358 -4.3678,2.20702 -9.38248,2.45897 -6.90736,0.34704 -8.4034,-0.0512 -10.28556,-2.73843 -1.21139,-1.72951 -2.25487,-5.12121 -2.31885,-7.53715 -0.064,-2.41593 -1.20656,-7.65713 -2.53908,-11.64711 l -2.42276,-7.25452 -8.70541,-0.93071 c -16.76684,-1.79255 -46.40823,-1.38567 -49.22738,0.67573 -2.44913,1.79085 -2.63023,5.40405 -2.66571,53.1851 -0.0357,48.1006 0.1264,51.38399 2.62764,53.21294 1.94943,1.42546 8.14675,1.92236 23.06378,1.84925 35.16935,-0.17234 69.38273,-2.17651 73.87628,-4.32758 3.03993,-1.4552 5.47426,-4.90691 9.11559,-12.92524 8.45879,-18.62655 12.74813,-26.32581 15.51307,-27.84554 4.48641,-2.46593 16.84075,1.25477 18.47966,5.56545 1.50006,3.94545 0.57068,12.63752 -2.29971,21.50831 -1.03496,3.19845 -2.35541,11.87057 -2.93438,19.27139 -0.77982,9.96845 -1.78258,14.38401 -3.86894,17.03637 l -2.8163,3.58035 h -99.85177 c -89.71332,0 -99.9412,-0.23302 -100.73246,-2.29502 z"
       id="path1630" />
    <path
       style="opacity:1;fill:#25317b;fill-opacity:1;fill-rule:evenodd;stroke:none;stroke-width:1.82088;stroke-linecap:round;stroke-linejoin:round;stroke-miterlimit:4;stroke-dasharray:none;paint-order:fill markers stroke"
       d="m 924.33276,958.15172 -26.41934,-0.39523 -0.98783,-5.2656 c -0.5433,-2.89609 -0.39437,-6.95309 0.33095,-9.01556 1.34825,-3.83371 1.77322,-3.99509 19.10752,-7.25632 3.4305,-0.6454 6.87565,-1.81183 7.65588,-2.59206 1.67672,-1.67673 -0.87491,-15.60738 -3.67396,-20.058 -1.00373,-1.59599 -3.04614,-8.08578 -4.53867,-14.42177 -1.49254,-6.33598 -4.05992,-13.51795 -5.70529,-15.95994 l -2.99158,-4.43996 -51.71042,-0.38095 -51.71042,-0.38094 -3.92555,3.37662 c -2.63791,2.26904 -4.76043,6.43929 -6.4708,12.71362 -3.04299,11.16292 -6.19457,21.37014 -9.49211,30.74271 -3.17189,9.01543 -1.78897,10.57132 10.5166,11.83207 5.31807,0.54484 11.51509,2.08103 13.77116,3.41371 3.43696,2.03028 4.10195,3.3838 4.10195,8.34915 0,3.25933 -0.78349,6.70955 -1.74108,7.66714 -1.27205,1.27205 -12.78885,1.74108 -42.7506,1.74108 -39.05996,0 -41.08091,-0.13333 -42.51146,-2.80642 -2.0928,-3.91044 -1.8744,-8.22466 0.66496,-13.13524 1.78627,-3.45427 3.37917,-4.35112 9.06815,-5.1056 9.20503,-1.22079 12.96971,-3.23702 14.56788,-7.80204 3.19807,-9.135 5.17199,-14.5469 8.52869,-23.38321 1.97042,-5.18697 4.47729,-12.04249 5.57082,-15.23448 1.09354,-3.19198 4.03044,-11.35331 6.52645,-18.13629 2.49601,-6.78297 5.40628,-14.9443 6.46726,-18.13628 1.06098,-3.19199 3.69194,-10.37396 5.84657,-15.95994 2.15463,-5.58597 5.14186,-13.7473 6.63828,-18.13629 1.49643,-4.38898 4.41586,-12.55031 6.48764,-18.13628 2.07178,-5.58598 4.44883,-12.11505 5.28234,-14.50904 2.54048,-7.29674 8.52518,-23.03944 9.92828,-26.11625 2.03854,-4.47025 7.11651,-19.42377 9.6077,-28.29261 1.23283,-4.38898 2.76771,-8.63287 3.41084,-9.43087 0.64313,-0.798 2.20505,-4.96263 3.47093,-9.25475 1.26589,-4.29211 2.88595,-8.536 3.60015,-9.43087 0.71419,-0.89486 2.34504,-5.27835 3.62411,-9.74107 1.27906,-4.46273 3.69044,-9.84921 5.35862,-11.96996 2.93256,-3.72814 3.52829,-3.85589 17.98086,-3.85589 20.11352,0 23.85179,0.84662 24.84155,5.62601 0.43335,2.09267 1.96948,6.41671 3.41358,9.60897 1.44412,3.19226 3.11704,8.08906 3.71761,10.88177 0.60057,2.79271 1.81271,6.38348 2.69363,7.97947 0.88093,1.59599 2.38573,5.51343 3.34401,8.70542 2.83688,9.4495 7.71003,23.02826 9.22484,25.70449 0.77519,1.36953 2.02189,4.96052 2.77044,7.97997 0.74855,3.01946 3.72446,12.01898 6.61312,19.99895 2.88866,7.97997 6.42994,17.77356 7.86951,21.76355 2.9321,8.12678 13.45682,37.89384 16.15933,45.70344 0.96652,2.79299 3.31018,9.17176 5.20813,14.17504 1.89797,5.00328 3.45084,9.8014 3.45084,10.66249 0,0.8611 0.96066,3.62302 2.1348,6.13761 1.17415,2.51459 3.41346,8.48943 4.97624,13.27741 1.5628,4.78798 4.55907,13.27576 6.6584,18.86174 2.09932,5.58597 4.79279,13.29361 5.98549,17.12805 2.87445,9.24125 5.93366,11.99241 14.61595,13.14417 11.32995,1.50297 17.98425,11.37472 12.35415,18.32759 -2.4241,2.99366 -3.85606,3.20765 -22.842,3.41329 -11.14067,0.12072 -32.14447,0.0415 -46.6751,-0.17582 z M 900.74885,856.78771 c 1.22609,-1.22756 1.04723,-2.80273 -0.70243,-6.1862 -1.29105,-2.49661 -2.94874,-7.30521 -3.68375,-10.68577 -1.32257,-6.08285 -9.3662,-31.30721 -14.45207,-45.32084 -1.44806,-3.98998 -4.32498,-12.64705 -6.39317,-19.23793 -2.06819,-6.59087 -5.3431,-17.03737 -7.27757,-23.21444 -1.93447,-6.17707 -4.96069,-16.78075 -6.72492,-23.56372 -5.45877,-20.98739 -6.07255,-21.26288 -12.93039,-5.80361 -1.57914,3.55978 -5.63557,16.84168 -9.5271,31.19441 -1.08182,3.98999 -2.77119,9.53969 -3.75416,12.33268 -5.02237,14.27055 -7.48511,21.66156 -14.98699,44.978 -4.49311,13.96494 -8.15943,26.38811 -8.14737,27.60704 0.012,1.21895 -0.85837,3.50412 -1.93428,5.07816 -3.43867,5.03079 -4.08216,12.00529 -1.26274,13.6863 3.59216,2.14172 89.58341,1.33213 91.77694,-0.86408 z"
       id="path1632" />
    <path
       style="opacity:1;fill:#25317b;fill-opacity:1;fill-rule:evenodd;stroke:none;stroke-width:1.82088;stroke-linecap:round;stroke-linejoin:round;stroke-miterlimit:4;stroke-dasharray:none;paint-order:fill markers stroke"
       d="m 1052.6565,958.18268 c -36.113,-0.41676 -36.2726,-0.46026 -36.2726,-9.89003 0,-3.21465 0.9999,-5.2787 3.2645,-6.73895 3.7199,-2.39857 15.178,-5.48328 20.3676,-5.48328 1.9169,0 4.5659,-1.19399 5.8865,-2.65332 2.1904,-2.42031 2.4013,-12.40843 2.4013,-113.73516 0,-128.16832 1.5487,-116.10133 -15.2345,-118.69922 -5.586,-0.86465 -10.6834,-2.09519 -11.3275,-2.73453 -0.6442,-0.63934 -0.9706,-4.68342 -0.7255,-8.98684 l 0.4458,-7.82442 46.4289,-0.87493 c 25.5359,-0.48121 47.8748,-1.33399 49.642,-1.89508 3.611,-1.14649 41.9063,1.53901 49.7448,3.48841 23.4717,5.8373 30.8086,9.47323 41.5863,20.60899 3.3216,3.43187 7.8869,10.48366 10.1452,15.67064 3.9372,9.04333 4.1035,10.35501 4.0454,31.91987 -0.054,20.06586 -0.4046,23.22299 -3.2534,29.30118 -1.756,3.74671 -3.1928,7.3026 -3.1928,7.90198 0,2.16712 -8.1194,13.03219 -15.8637,21.22821 -4.3525,4.60637 -12.0309,10.67771 -17.0631,13.49187 -5.0321,2.81415 -9.1494,5.96389 -9.1494,6.99941 0,1.03553 2.1517,4.10488 4.7816,6.82079 4.5675,4.71698 21.5654,29.63349 25.8349,37.87023 16.5073,31.84615 28.7493,51.71551 35.533,57.67173 2.7752,2.43661 6.5673,4.43019 8.4269,4.43019 7.9572,0 14.0882,10.08443 11.0267,18.13691 l -1.3789,3.62664 h -25.5606 c -31.8134,0 -31.1238,0.40207 -44.7911,-26.11626 -3.0846,-5.98497 -6.1152,-11.86113 -6.7347,-13.05813 -0.6194,-1.19699 -2.5757,-5.44088 -4.3472,-9.43087 -13.6756,-30.80142 -28.97,-59.12448 -35.9143,-66.50835 -6.8968,-7.33334 -10.1604,-8.21315 -30.4663,-8.21315 -15.6814,0 -19.0826,0.39354 -20.7474,2.40066 -2.6687,3.21726 -2.4049,93.86548 0.2825,97.10363 0.9398,1.1324 3.7508,2.08186 6.2465,2.10989 8.4037,0.0944 23.222,4.00564 25.1463,6.63729 2.3797,3.2544 2.3451,9.26459 -0.072,12.44381 -2.2112,2.90877 -17.6538,3.57439 -69.1421,2.98019 z m 100.1123,-147.1579 c 7.8505,-3.81416 17.4377,-12.59603 22.2458,-20.37706 3.5624,-5.76527 6.7799,-22.84173 6.7213,-35.67231 -0.1304,-28.52335 -8.2431,-42.27622 -31.1435,-52.79533 -6.6988,-3.07706 -9.2216,-3.33231 -32.9355,-3.33231 -19.1497,0 -26.1606,0.48013 -27.5671,1.88786 -2.936,2.93863 -2.7326,109.09352 0.2159,112.64489 1.8878,2.27384 4.772,2.48044 28.2926,2.02664 24.9046,-0.48051 26.5823,-0.69569 34.1705,-4.38238 z"
       id="path1636" />
  </g>
  <g
     id="g1660"
     transform="translate(-23.521858,-36.336934)">
    <path
       style="opacity:1;fill:#25317b;fill-opacity:1;fill-rule:evenodd;stroke:none;stroke-width:1.28756;stroke-linecap:round;stroke-linejoin:round;stroke-miterlimit:4;stroke-dasharray:none;paint-order:fill markers stroke"
       d="m 2003.7988,960.93498 c -11.7799,-1.65111 -13.4554,-2.05455 -21.7665,-5.24128 -10.9362,-4.19324 -23.7507,-10.79576 -29.5518,-15.22618 -8.0554,-6.15198 -19.5577,-16.98922 -22.3783,-21.08434 -1.3604,-1.97494 -4.31,-6.12756 -6.5549,-9.22803 -4.0323,-5.56912 -10.3157,-17.59925 -11.7918,-22.57621 -0.4183,-1.41068 -1.8144,-5.10407 -3.1024,-8.20755 -2.2301,-5.37386 -3.5743,-11.46916 -7.127,-32.31722 -2.5364,-14.88451 -2.1128,-42.0624 0.9116,-58.47877 3.1299,-16.98879 12.0065,-39.57364 19.9493,-50.75701 11.1978,-15.76623 28.289,-32.93196 37.8665,-38.03147 3.2322,-1.72096 9.8009,-5.21813 14.5972,-7.77149 17.2182,-9.16634 37.3105,-13.88473 60.0177,-14.09431 10.5505,-0.0974 43.861,3.23437 49.2453,4.92556 2.8213,0.88618 9.0539,2.26319 13.8502,3.06002 12.1213,2.01377 14.0666,2.90757 15.1276,6.95062 0.4973,1.89514 0.5068,14.66428 0.022,29.03176 -0.8652,25.61993 -0.869,25.65116 -3.4481,27.95695 -2.2497,2.01127 -3.7072,2.30838 -11.3242,2.30838 -8.2169,0 -8.9157,-0.17347 -11.6287,-2.88645 -2.0574,-2.05741 -3.2108,-4.63574 -4.0157,-8.977 -0.6212,-3.34981 -2.0188,-8.86061 -3.106,-12.24622 -1.0871,-3.38562 -2.5092,-8.52459 -3.16,-11.41993 -1.3934,-6.19825 -4.5257,-9.58575 -11.6959,-12.64848 -11.6818,-4.98992 -39.7967,-7.24738 -53.2317,-4.2742 -9.1552,2.02607 -22.0776,8.56678 -28.9851,14.67093 -8.0444,7.10877 -13.108,12.80493 -15.3455,17.26248 -0.9913,1.97494 -2.361,4.28331 -3.0438,5.12972 -0.6827,0.8464 -2.0866,3.84728 -3.1198,6.66863 -1.0332,2.82134 -2.4561,6.05306 -3.162,7.1816 -1.8851,3.01349 -5.131,14.78505 -7.7797,28.21345 -2.0135,10.20836 -2.325,14.97833 -2.3117,35.39504 0.013,20.0638 0.3681,25.56353 2.3705,36.73341 3.5773,19.95485 10.1778,41.65888 14.8812,48.93287 7.5183,11.62728 10.5743,15.70231 15.8515,21.13708 8.8042,9.06705 13.6422,12.47271 23.1818,16.31851 7.9209,3.19328 9.8067,3.53261 22.3051,4.01361 7.5091,0.28898 17.1154,0.13374 21.3474,-0.34496 8.8719,-1.00355 21.5994,-5.97321 25.989,-10.1478 2.7017,-2.56943 17.1006,-30.80778 17.1006,-33.53687 0,-0.67393 0.9047,-2.04408 2.0104,-3.04476 3.7189,-3.36555 16.9072,-1.37089 20.4142,3.08753 1.6244,2.06508 1.658,3.22499 0.4182,14.43641 -0.7414,6.705 -1.8457,13.57594 -2.4539,15.26875 -0.6082,1.6928 -1.7431,6.51591 -2.5221,10.71802 -0.7789,4.2021 -2.0013,8.19178 -2.7164,8.86598 -0.7151,0.67419 -5.6861,2.47236 -11.0466,3.99593 -5.3606,1.52357 -13.438,3.91023 -17.9498,5.30368 -4.5118,1.39345 -12.5911,3.27043 -17.954,4.17105 -12.6689,2.12757 -42.6221,2.5632 -55.1835,0.80256 z"
       id="path1638" />
    <path
       style="opacity:1;fill:#25317b;fill-opacity:1;fill-rule:evenodd;stroke:none;stroke-width:1.28756;stroke-linecap:round;stroke-linejoin:round;stroke-miterlimit:4;stroke-dasharray:none;paint-order:fill markers stroke"
       d="m 2357.3917,958.60518 -22.4295,-0.27681 -3.3625,-2.80102 c -6.1104,-5.09002 -13.9285,-17.10695 -19.5101,-29.98851 -0.8557,-1.97494 -2.2119,-4.74499 -3.0138,-6.15566 -2.4246,-4.26552 -9.7911,-20.25303 -9.7911,-21.24959 0,-0.51212 -3.5226,-7.82859 -7.8279,-16.25881 -4.3054,-8.43023 -8.6637,-16.97953 -9.6851,-18.99844 -1.0215,-2.01891 -2.604,-4.29053 -3.5168,-5.04804 -0.9127,-0.75752 -2.3012,-2.9131 -3.0855,-4.7902 -1.9411,-4.64567 -8.4517,-12.26411 -12.8186,-14.9999 -3.3106,-2.07394 -5.1218,-2.27631 -23.2054,-2.5927 l -19.6146,-0.34318 -2.1867,2.77997 c -2.1568,2.74184 -2.1867,3.40161 -2.1867,48.11725 v 45.33729 l 2.3083,2.10048 c 1.6915,1.53911 4.7761,2.39963 11.5419,3.21983 19.3605,2.34703 22.0578,3.71039 22.0578,11.14944 0,2.47978 -0.7044,5.87078 -1.5653,7.53557 l -1.5652,3.02688 h -49.7786 -49.7785 l -2.5183,-2.51823 c -1.9202,-1.92025 -2.5182,-3.60391 -2.5182,-7.0904 0,-7.61097 5.6414,-11.0247 20.7289,-12.54351 4.6118,-0.46426 7.5701,-1.33667 8.977,-2.64738 2.0888,-1.94608 2.0984,-2.45769 2.0984,-112.76781 0,-122.29114 0.3624,-115.61647 -6.3943,-117.75837 -1.8437,-0.58445 -6.7626,-1.51719 -10.9309,-2.07274 -4.1683,-0.55556 -8.0832,-1.5146 -8.6998,-2.1312 -1.8617,-1.86175 -2.6164,-14.62865 -0.9785,-16.55392 1.2299,-1.44574 7.0483,-1.71885 48.3135,-2.26779 26.9214,-0.35813 48.6641,-1.07854 51.019,-1.69045 2.778,-0.72186 6.921,-0.74146 12.8243,-0.0607 4.7963,0.55312 14.4914,1.45127 21.5448,1.99589 19.9285,1.53877 39.7603,8.72035 50.7842,18.39031 11.1194,9.75372 17.6925,25.90977 18.6875,45.93182 0.967,19.45984 -2.1609,32.86035 -11.788,50.50249 -3.9544,7.24651 -17.8994,22.03792 -23.3476,24.76456 -6.5874,3.29682 -12.6213,7.32566 -13.1896,8.80675 -0.6521,1.69912 3.7994,9.47003 5.8826,10.26945 3.0608,1.17452 26.4533,37.56788 29.1858,45.40627 0.6395,1.83457 2.0374,4.58477 3.1064,6.11156 1.069,1.52678 4.3562,7.16187 7.305,12.52243 8.4236,15.31338 9.6473,17.15749 16.3643,24.65972 5.087,5.6818 7.0693,7.1832 10.1419,7.6816 8.0605,1.30748 10.8951,3.94643 12.6556,11.78203 1.1695,5.205 -0.8462,9.64038 -4.958,10.90987 -1.5689,0.48438 -12.9458,0.75612 -25.2821,0.60387 z m -77.2058,-147.97281 c 13.2936,-6.7572 24.1701,-20.6618 26.4823,-33.85532 0.544,-3.10348 1.2278,-12.30798 1.5198,-20.45444 0.7787,-21.72905 -2.0432,-31.0839 -12.7682,-42.32795 -7.0504,-7.39153 -16.8724,-12.27219 -29.5833,-14.70019 -7.441,-1.42137 -12.33,-1.61966 -26.4484,-1.0727 -17.6926,0.68542 -22.2305,1.69447 -23.5934,5.24629 -0.3506,0.91342 -0.6373,25.47831 -0.6373,54.58865 0,48.84352 0.1377,53.08003 1.7844,54.89962 1.6908,1.86838 3.2102,1.95325 28.9829,1.61889 l 27.1985,-0.35286 z"
       id="path1640" />
    <path
       style="opacity:1;fill:#25317b;fill-opacity:1;fill-rule:evenodd;stroke:none;stroke-width:1.28756;stroke-linecap:round;stroke-linejoin:round;stroke-miterlimit:4;stroke-dasharray:none;paint-order:fill markers stroke"
       d="m 2417.7174,954.67073 c -2.35,-5.62422 0.086,-14.26686 4.4993,-15.96542 1.4636,-0.56327 6.1523,-1.38099 10.4193,-1.81714 4.2669,-0.43616 9.1145,-1.44312 10.7724,-2.23768 l 3.0142,-1.44465 0.261,-113.04083 0.261,-113.04084 -3.3388,-2.44565 c -2.5393,-1.86 -5.6696,-2.72433 -13.072,-3.60935 -7.0713,-0.84544 -10.0874,-1.64832 -11.0289,-2.93578 -1.6656,-2.27785 -1.7149,-14.91362 -0.065,-16.56389 1.7216,-1.72162 180.0727,-1.78587 183.8469,-0.0662 3.0396,1.38495 3.3947,3.54216 4.6215,28.07449 0.4515,9.0283 1.1213,17.1076 1.4884,17.95401 0.3671,0.8464 -0.2499,3.03935 -1.3713,4.87323 -1.9873,3.24998 -2.2204,3.33431 -9.2193,3.33431 -6.3902,0 -7.5252,-0.31054 -10.3121,-2.82134 -1.943,-1.75052 -3.6768,-4.7683 -4.5681,-7.95106 -2.0445,-7.30096 -5.898,-17.16483 -7.8451,-20.08121 l -1.6621,-2.48955 -38.8626,-1.063 c -24.582,-0.67238 -40.0786,-0.70624 -42.1717,-0.0921 -2.3929,0.7021 -3.592,1.84847 -4.3314,4.14083 -1.4254,4.41932 -1.3753,90.34364 0.055,94.75324 1.8985,5.85198 4.4603,6.4383 26.2526,6.00844 21.1088,-0.41637 31.2196,-2.15939 34.4252,-5.93456 1.2266,-1.44462 1.8141,-3.94719 1.8545,-7.89995 0.1095,-10.71565 1.1031,-13.78898 5.0878,-15.73765 4.2899,-2.09793 14.8405,-2.35281 18.286,-0.44176 l 2.401,1.33175 -0.041,37.58762 c -0.026,23.93202 -0.4272,38.31043 -1.1052,39.5772 -1.323,2.4721 -7.5292,3.63635 -14.3693,2.69559 -7.5909,-1.04401 -8.3128,-1.95437 -9.4047,-11.85937 -2.0461,-18.56048 -1.6787,-18.34915 -33.3144,-19.16436 -26.4231,-0.68087 -28.5746,-0.26978 -30.0676,5.74511 -0.5086,2.0491 -0.8579,25.6412 -0.7762,52.42689 l 0.1485,48.70127 2.5648,1.34684 c 2.0203,1.06087 8.2289,1.21276 29.2394,0.71534 14.671,-0.34733 33.8741,-0.7869 42.6736,-0.97681 8.7995,-0.18992 17.845,-0.84234 20.101,-1.44982 3.9797,-1.07162 11.6063,-7.29302 11.6063,-9.4678 0,-0.59127 1.5391,-4.37786 3.4202,-8.41464 1.881,-4.03678 4.0485,-8.95546 4.8165,-10.9304 0.768,-1.97494 2.1636,-4.74499 3.1014,-6.15566 0.9378,-1.41067 2.4744,-3.83446 3.4147,-5.3862 1.9852,-3.27613 4.5045,-3.54246 12.7491,-1.34785 9.9714,2.65426 10.9953,4.87198 8.305,17.98823 -1.0795,5.26304 -3.1183,16.54119 -4.5307,25.06256 -3.2978,19.89735 -3.1305,19.24538 -5.6279,21.92596 l -2.1315,2.28796 h -99.4628 -99.4628 z"
       id="path1642" />
    <path
       style="opacity:1;fill:#25317b;fill-opacity:1;fill-rule:evenodd;stroke:none;stroke-width:1.28756;stroke-linecap:round;stroke-linejoin:round;stroke-miterlimit:4;stroke-dasharray:none;paint-order:fill markers stroke"
       d="m 2662.5344,956.07564 c -3.0819,-3.26192 -2.3723,-11.15438 1.3364,-14.86306 2.6075,-2.60754 12.8683,-5.22794 20.9896,-5.36033 6.8914,-0.11235 6.5013,7.23013 6.1972,-116.6477 -0.2539,-103.44426 -0.405,-111.96903 -2.0286,-114.44667 -1.6194,-2.47111 -2.5087,-2.7336 -11.5604,-3.41224 -13.1524,-0.98607 -14.8988,-2.29611 -14.8988,-11.17626 0,-10.8199 -9.4053,-9.83101 93.5021,-9.83101 70.1909,0 90.1275,0.27947 91.4837,1.28243 1.3087,0.96781 1.9712,3.92519 2.7006,12.05483 0.5316,5.92483 1.4778,16.37392 2.1025,23.22022 1.6702,18.30283 1.3843,18.80187 -10.7899,18.82945 -7.5704,0.0172 -9.9561,-1.48551 -11.6754,-7.35375 -0.7139,-2.43682 -1.913,-5.39567 -2.6647,-6.57522 -0.7516,-1.17955 -1.8875,-4.18043 -2.5242,-6.66863 -3.3576,-13.12213 -3.7702,-13.31391 -29.5703,-13.74159 -52.5657,-0.87139 -57.8981,-0.79003 -59.8879,0.9137 -1.7815,1.52537 -1.8864,4.29352 -1.8864,49.78735 v 48.17216 l 2.4432,2.84031 2.4431,2.84031 19.3581,-0.0325 c 33.55,-0.0563 36.3263,-1.18686 38.9568,-15.86357 2.6047,-14.53284 1.9968,-13.6564 10.1552,-14.64136 8.7667,-1.0584 14.5781,0.34851 15.4281,3.73506 0.3153,1.25627 0.4352,18.58926 0.2665,38.51777 -0.3598,42.48417 0.7312,39.14531 -12.7906,39.14531 -7.8415,0 -8.626,-0.19101 -10.1145,-2.46281 -0.8933,-1.3633 -1.8782,-5.82914 -2.2061,-10.00295 -0.6297,-8.01615 -3.0634,-13.88455 -6.7001,-16.15565 -1.5027,-0.93849 -9.5664,-1.483 -28.0114,-1.89149 l -25.9012,-0.57362 -1.6371,2.49852 c -1.4406,2.19862 -1.6468,8.63309 -1.7184,53.60639 -0.077,48.07351 0.028,51.19627 1.7689,52.59673 1.5592,1.25459 6.2898,1.39308 30.0638,0.88012 38.7808,-0.83677 62.6111,-2.0409 65.6603,-3.31779 1.4107,-0.59073 3.2947,-1.93496 4.1867,-2.98719 2.2906,-2.70199 6.6969,-10.66707 7.5852,-13.71148 0.4117,-1.41068 2.747,-6.77669 5.1897,-11.92447 4.9323,-10.39481 8.6397,-14.24322 12.7679,-13.25379 1.4233,0.3411 4.5671,0.89849 6.9863,1.23862 5.5536,0.78082 7.4011,3.29419 7.3957,10.0612 -0.01,6.16071 -2.5743,22.61031 -4.6515,29.77989 -0.8176,2.82172 -1.8985,9.21628 -2.4021,14.21014 -0.6144,6.09239 -1.4725,9.63665 -2.6081,10.77241 -1.5456,1.5458 -10.3177,1.71619 -101.1186,1.96411 l -99.4261,0.27146 z"
       id="path1644" />
    <path
       style="opacity:1;fill:#25317b;fill-opacity:1;fill-rule:evenodd;stroke:none;stroke-width:1.28756;stroke-linecap:round;stroke-linejoin:round;stroke-miterlimit:4;stroke-dasharray:none;paint-order:fill markers stroke"
       d="m 2906.728,957.57923 c -3.6914,-2.39639 -3.9939,-12.81407 -0.4649,-16.00777 2.7838,-2.51929 8.9661,-4.74673 13.192,-4.75297 5.5697,-0.008 10.9653,-1.72406 13.2055,-4.19944 1.8798,-2.0772 1.9278,-5.48677 1.5899,-113.1045 -0.2061,-65.66184 -0.7376,-111.69138 -1.3019,-112.74752 -1.6005,-2.99576 -6.858,-5.00375 -15.3399,-5.85881 -4.4892,-0.45256 -9.2333,-1.56804 -10.6686,-2.50851 -2.3549,-1.54301 -2.5847,-2.33207 -2.5847,-8.87689 0,-6.76685 0.1526,-7.24136 2.6316,-8.1839 3.6701,-1.39536 93.3116,-1.3379 95.9264,0.0615 1.6854,0.90197 1.9845,2.19739 1.9845,8.5949 0,5.63171 -0.4115,7.87431 -1.6302,8.88579 -0.9856,0.81793 -5.3468,1.52154 -11.0289,1.77932 -10.077,0.45717 -11.9087,1.28646 -14.6805,6.64643 -1.2414,2.40075 -1.4562,11.60542 -1.3286,56.94228 0.084,29.74325 -0.1466,55.23281 -0.5118,56.64348 -0.8842,3.41578 1.2585,6.15792 5.0332,6.44142 2.4557,0.18443 3.3047,-0.35235 4.5082,-2.85061 0.8155,-1.69281 4.0803,-6.07872 7.255,-9.74647 3.1747,-3.66774 7.6957,-9.20784 10.0468,-12.31132 2.351,-3.10348 5.1081,-6.39849 6.127,-7.32225 2.1935,-1.98883 5.8599,-6.34583 15.8528,-18.8393 4.062,-5.07842 9.9604,-12.32304 13.1076,-16.09916 3.1472,-3.77611 10.1081,-12.23095 15.4687,-18.78853 10.8999,-13.33393 21.9512,-26.6279 24.7515,-29.77435 4.3402,-4.87683 -0.8148,-9.3811 -11.9237,-10.41846 -3.634,-0.33935 -8.0068,-1.46816 -9.7175,-2.50848 -2.9468,-1.79202 -3.1103,-2.23984 -3.1103,-8.51701 0,-10.39634 -2.7123,-9.81972 46.1905,-9.81972 31.0112,0 41.9443,0.31404 42.8614,1.23113 1.3537,1.35372 1.6894,13.90088 0.4251,15.88924 -1.1858,1.86486 -5.5217,3.20809 -12.6921,3.93185 -9.3097,0.93972 -13.901,3.00575 -19.3304,8.69836 -5.4427,5.70663 -40.8865,46.16215 -57.9771,66.17513 -1.9275,2.25707 -5.8302,6.63544 -8.6726,9.72971 -7.0599,7.68548 -6.9319,9.5022 1.2874,18.26785 5.6936,6.07206 8.9878,10.18444 17.8422,22.27366 1.2399,1.69281 4.2742,6.07872 6.743,9.74647 7.3114,10.86196 8.3349,12.38306 11.0231,16.38136 1.4106,2.09819 3.5717,5.38793 4.8023,7.31052 1.2307,1.92259 3.2015,4.88064 4.3796,6.57345 5.2258,7.5088 10.311,15.73271 10.311,16.67532 0,0.56509 0.7262,1.63018 1.6139,2.36686 0.8876,0.73668 2.5684,3.217 3.7351,5.51182 1.1666,2.29483 3.004,5.3266 4.0831,6.73727 1.079,1.41067 4.3612,6.2023 7.2937,10.64806 2.9326,4.44577 6.4433,9.75503 7.8017,11.79835 1.3583,2.04333 4.8209,6.12766 7.6946,9.07629 4.3003,4.41248 6.2969,5.63533 11.2836,6.91055 7.1827,1.83682 9.4643,3.66611 11.0109,8.82821 1.6563,5.52841 0.3811,11.06936 -2.8284,12.28963 -1.4171,0.53876 -13.3054,0.97957 -26.4185,0.97957 h -23.842 l -4.7236,-2.99556 c -3.9914,-2.53128 -9.6262,-9.22058 -14.6555,-17.39825 -0.5629,-0.91519 -1.9776,-3.049 -3.1439,-4.7418 -3.004,-4.36038 -17.8906,-31.91925 -17.8906,-33.12018 0,-0.54872 -0.7412,-1.61283 -1.6471,-2.36467 -0.9059,-0.75185 -2.7636,-3.69385 -4.1281,-6.53777 -1.3646,-2.84393 -4.0739,-7.94083 -6.0206,-11.32644 -1.9467,-3.38561 -4.6543,-8.52035 -6.0167,-11.41052 -1.3625,-2.89018 -2.9773,-5.56393 -3.5885,-5.94167 -0.6112,-0.37774 -2.0358,-2.6298 -3.1658,-5.00457 -1.13,-2.37478 -4.1396,-7.54949 -6.688,-11.49937 -2.5483,-3.94988 -5.3513,-8.56663 -6.2289,-10.25944 -0.8775,-1.6928 -3.3554,-5.08291 -5.5063,-7.53356 l -3.9108,-4.45574 -4.25,2.16821 c -2.3376,1.19252 -4.2501,2.54868 -4.2501,3.01368 0,0.93604 -6.4838,8.52522 -18.3554,21.48459 -11.5609,12.62033 -11.2753,11.38625 -11.3412,49.00897 l -0.056,31.88189 2.5094,2.35746 c 1.8022,1.69304 4.3323,2.56334 8.977,3.08794 7.9877,0.90214 18.1763,3.85526 20.5744,5.96331 2.2329,1.9629 2.4471,10.23591 0.3397,13.11903 -1.4016,1.91747 -3.2987,2.00104 -51.0407,2.24851 -27.2717,0.14136 -50.1332,-0.0989 -50.8032,-0.53385 z"
       id="path1646" />
  </g>
  <path
     style="opacity:1;fill:#9a9a9a;fill-opacity:1;fill-rule:evenodd;stroke:none;stroke-width:0.643779;stroke-linecap:round;stroke-linejoin:round;stroke-miterlimit:4;stroke-dasharray:none;paint-order:fill markers stroke"
     d="m 14.400313,1134.4069 c -3.237239,-0.3457 -6.8067731,1.614 -6.6676301,5.2269 -0.66097,31.5916 -0.361776,63.3009 -0.501951,94.9378 1.169018,2.6633 2.618242,6.1598 6.1566621,5.9453 1.944991,0.2869 4.46119,1.0449 5.573558,-1.2875 2.375061,-3.3581 0.872982,-7.6597 1.441731,-11.5078 0.308615,-29.5567 0.71653,-59.1335 -0.02405,-88.683 -0.151452,-3.3227 -2.656979,-5.3468 -5.978324,-4.6317 z"
     id="path1672" />
  <path
     style="opacity:1;fill:#9a9a9a;fill-opacity:1;fill-rule:evenodd;stroke:none;stroke-width:1.82088;stroke-linecap:round;stroke-linejoin:round;stroke-miterlimit:4;stroke-dasharray:none;paint-order:fill markers stroke"
     d="m 83.577552,1133.5413 c -7.823568,-0.3587 -9.170211,7.9966 -8.511744,13.9898 0.108156,29.1722 -1.494869,58.5145 1.039031,87.5904 0.407103,6.7748 9.538953,8.4087 12.397853,2.3691 3.22112,-17.9713 0.51925,-36.6587 1.66745,-54.8755 1.16807,-4.9926 -1.7424,-13.0924 3.11316,-16.3265 5.0607,0.757 5.92324,8.3587 9.775478,11.4161 8.87818,12.0493 15.62987,25.55 24.93001,37.2855 5.37528,8.9796 10.12289,19.9402 19.31515,25.5099 5.35986,2.5611 13.94997,0.4176 12.63589,-6.9003 1.82575,-31.9255 2.51692,-64.6756 -0.6376,-96.5247 -2.95325,-6.7181 -14.36155,-2.7769 -13.13181,4.4915 -1.08717,21.9816 -0.20669,44.0173 -0.42224,66.0189 -6.48108,2.2379 -11.00776,-6.7236 -14.27141,-11.4969 -12.32592,-19.5308 -25.11274,-38.8672 -37.765558,-58.1237 -2.6292,-2.7032 -6.30031,-4.5662 -10.13366,-4.4236 z"
     id="path1678" />
  <path
     style="opacity:1;fill:#9a9a9a;fill-opacity:1;fill-rule:evenodd;stroke:none;stroke-width:1.28756;stroke-linecap:round;stroke-linejoin:round;stroke-miterlimit:4;stroke-dasharray:none;paint-order:fill markers stroke"
     d="m 235.1804,1132.4349 c -8.10031,0.9671 -17.32356,-1.398 -24.44431,3.4626 0,33.8327 0,67.6655 0,101.4982 3.35696,6.1195 9.94068,4.2934 15.76879,4.328 13.09888,-0.8096 26.57332,0.9815 39.39371,-1.9995 7.20538,-3.247 15.25186,-5.2562 20.43471,-11.7864 6.74989,-6.8868 11.39878,-16.0325 13.3573,-25.3941 0.24684,-12.138 1.54932,-24.8773 -0.7354,-36.954 -3.71141,-9.5134 -8.73514,-19.1445 -17.32882,-25.1055 -7.81157,-3.4036 -15.66472,-7.2364 -24.41425,-7.4421 -7.27184,-0.684 -14.66295,-0.7133 -22.03173,-0.6072 z m 8.88683,13.8663 c 13.90513,-0.2433 30.49387,4.3411 37.09226,17.7516 3.42526,13.6501 3.82947,28.0157 0.33814,41.714 0.017,7.7178 -8.00027,11.3938 -13.28065,15.7068 -10.68259,7.1349 -24.48162,5.731 -36.50916,5.4703 -2.89594,-3.1115 -6.66445,-6.8035 -4.98544,-11.3976 0.78663,-19.374 0.0136,-38.787 -0.55105,-58.094 0.12182,-5.7783 4.35484,-11.4662 10.60209,-10.8646 2.42393,-0.2295 4.86,-0.2963 7.29381,-0.2865 z"
     id="path1682" />
  <path
     style="opacity:1;fill:#9a9a9a;fill-opacity:1;fill-rule:evenodd;stroke:none;stroke-width:1.28756;stroke-linecap:round;stroke-linejoin:round;stroke-miterlimit:4;stroke-dasharray:none;paint-order:fill markers stroke"
     d="m 369.22832,1132.3828 c -7.46408,0.7801 -16.284,-1.2811 -22.84528,3.1139 -2.47299,9.5877 -0.59463,19.9813 -1.17896,29.8886 0.57449,23.6417 -0.65285,47.418 1.42944,70.9625 0.57461,6.3271 8.98643,4.1172 13.05149,4.8703 18.9872,0.1539 38.14311,1.4031 57.02124,-0.5361 7.11073,-0.4105 7.5564,-13.7973 -0.43482,-12.626 -16.49119,-1.13 -33.47973,0.5609 -49.76827,-0.8776 -6.28441,-8.1472 -4.38776,-19.2692 -3.23213,-28.7264 0.46168,-5.7855 5.22867,-6.9848 10.31154,-5.9713 13.44145,-0.5743 27.29218,1.1419 40.43659,-1.01 5.1186,-3.928 2.8036,-15.8243 -5.22189,-13.6117 -14.19484,-0.5462 -28.80894,2.2624 -42.76501,-0.9318 -4.71565,-2.7998 -2.33234,-9.8098 -3.46815,-14.3398 0.68573,-4.7507 -2.97289,-12.8963 2.96119,-15.3605 17.19429,-2.5223 34.81878,0.6312 52.02656,-1.3565 5.15022,-2.2169 6.09701,-12.0898 -0.64322,-12.5338 -15.78986,-1.1448 -31.80711,-0.8082 -47.68032,-0.9538 z"
     id="path1686" />
  <path
     style="opacity:1;fill:#9a9a9a;fill-opacity:1;fill-rule:evenodd;stroke:none;stroke-width:1.28756;stroke-linecap:round;stroke-linejoin:round;stroke-miterlimit:4;stroke-dasharray:none;paint-order:fill markers stroke"
     d="m 490.07323,1133.8476 c -6.8575,0.6872 -14.49388,-1.1688 -20.9597,1.5229 -2.82357,6.5786 -0.8394,14.5578 -1.59816,21.6028 0.37114,25.8954 -1.10044,51.9445 0.94292,77.7253 0.47542,6.5071 9.67376,7.6922 12.85835,2.4206 2.42548,-9.341 0.71991,-19.5598 1.59502,-29.2454 -0.0148,-4.0019 0.25009,-10.1396 5.84908,-9.6903 14.34845,-1.9644 29.38391,0.958 43.12369,-4.1639 9.29228,-5.592 16.61166,-15.8478 15.43129,-27.0191 0.78676,-11.0438 -3.27594,-22.869 -13.01271,-29.2315 -9.82113,-6.0066 -22.07131,-3.0779 -33.00051,-3.9305 -3.74309,0 -7.48618,0.01 -11.22927,0.01 z m 3.36037,11.7442 c 10.21117,0.8014 21.1771,-0.7488 30.82238,3.2221 13.34702,7.34 10.75393,32.1615 -5.05357,34.6697 -10.6244,1.0586 -21.67372,2.068 -32.22905,0.2264 -6.45803,-3.2255 -3.37602,-12.3769 -4.19795,-18.0542 0.87313,-6.0059 -2.21875,-15.0146 3.87133,-19.02 2.09926,-0.9987 4.51195,-0.9938 6.78686,-1.044 z"
     id="path1688" />
  <path
     style="opacity:1;fill:#9a9a9a;fill-opacity:1;fill-rule:evenodd;stroke:none;stroke-width:1.28756;stroke-linecap:round;stroke-linejoin:round;stroke-miterlimit:4;stroke-dasharray:none;paint-order:fill markers stroke"
     d="m 867.13748,1133.3927 c -5.01101,0.1699 -14.43727,-0.8916 -13.97214,6.4923 0.30645,32.1077 -0.8354,64.3225 0.74509,96.3666 2.32702,5.7575 10.38476,3.9499 15.14469,4.6648 17.54772,-0.017 36.25955,1.4276 52.12874,-7.5523 7.57122,-6.5677 15.17061,-14.2095 17.28074,-24.3561 5.20064,-11.4677 2.99253,-24.434 3.15998,-36.6475 -2.29422,-11.6795 -8.55348,-22.9922 -17.45907,-30.9366 -5.59245,-1.6986 -10.01736,-6.402 -16.20269,-6.6626 -13.35983,-1.8399 -27.21284,-1.2981 -40.82534,-1.3686 z m 19.3186,13.4335 c 10.0052,-0.75 20.37852,0.5504 28.60018,6.7708 9.74325,7.2365 11.06513,20.6228 12.49566,31.7622 -1.71806,9.2598 -1.66445,19.1361 -7.18761,27.2816 -4.85367,7.8348 -14.13969,11.8955 -22.22009,15.0706 -9.28715,-0.7685 -19.32657,1.5879 -28.20343,-1.7253 -4.01375,-4.7916 -1.45817,-12.1995 -2.38996,-17.9298 0.3931,-19.4961 -1.07204,-39.1771 1.06946,-58.5651 3.00042,-4.0776 9.67861,-1.7678 14.00453,-2.647 1.27709,-0.01 2.55417,-0.012 3.83126,-0.018 z"
     id="path1694" />
  <path
     style="opacity:1;fill:#9a9a9a;fill-opacity:1;fill-rule:evenodd;stroke:none;stroke-width:1.28756;stroke-linecap:round;stroke-linejoin:round;stroke-miterlimit:4;stroke-dasharray:none;paint-order:fill markers stroke"
     d="m 1285.6282,1133.4088 c -15.7911,0.7103 -31.868,-1.0179 -47.4239,1.8755 -3.4599,2.48 -1.0596,10.751 3.9235,9.8527 9.082,1.2261 19.6869,-2.2089 27.7024,3.3463 3.7442,5.9275 0.8061,13.8971 1.8633,20.5307 0.6223,22.1557 -0.7034,44.5532 1.415,66.5302 0.3846,5.4345 7.0611,6.2199 10.2213,2.647 3.3097,-4.4489 1.1469,-10.9563 2.0339,-16.1546 0.8069,-24.6972 -0.8168,-49.5265 1.2584,-74.1484 2.5342,-3.8587 8.7584,-1.7719 12.67,-2.5829 6.0191,-0.5571 12.899,0.9753 18.3968,-1.559 2.4239,-2.724 3.6992,-8.4205 -1.3405,-9.015 -10.0643,-1.979 -20.5187,-1.0877 -30.7202,-1.3225 z m -11.1131,106.4376 c 0.6382,0.4549 2.0786,-0.949 0,0 z"
     id="path1702" />
  <path
     style="opacity:1;fill:#9a9a9a;fill-opacity:1;fill-rule:evenodd;stroke:none;stroke-width:1.28756;stroke-linecap:round;stroke-linejoin:round;stroke-miterlimit:4;stroke-dasharray:none;paint-order:fill markers stroke"
     d="m 1451.6467,1130.385 c -10.0815,1.4622 -21.4416,3.1182 -28.464,11.2854 -8.7419,8.3429 -12.3133,23.4292 -3.7411,33.273 4.1167,6.3804 10.8662,9.969 18.0282,11.7743 10.3187,4.7354 22.2578,4.3463 32.3493,9.7405 7.4335,1.7164 13.0924,10.4337 11.5118,17.8318 -2.3107,5.7563 -5.1734,12.4146 -12.0528,13.6518 -10.5792,3.571 -22.7947,3.5274 -32.7501,-1.7613 -6.083,-4.6103 -9.987,-11.2501 -13.0106,-18.0442 -3.9631,-6.3545 -14.7256,-0.9126 -11.8805,5.9272 4.7766,17.1103 23.1372,29.1489 40.6649,27.2861 8.6802,0.2156 17.2207,-0.4394 25.0776,-4.533 11.0855,-5.6136 20.1762,-18.4587 18.0081,-31.3073 -3.3727,-9.5921 -10.2993,-19.1011 -20.7974,-21.2662 -7.9157,-4.2123 -16.64,-5.7098 -25.358,-7.0915 -8.8056,-2.1106 -20.9609,-7.6553 -19.8256,-18.463 1.6381,-5.5952 4.0808,-12.8688 11.079,-13.0687 7.3799,-2.1018 15.3177,-4.4042 22.6269,-0.7494 8.9633,0.52 12.912,10.1399 16.7437,16.904 2.3038,3.7507 11.4571,5.1854 10.8285,-1.1362 0.2488,-6.8468 -2.2554,-13.3631 -6.845,-18.487 -7.8167,-8.5995 -21.1659,-11.3954 -32.1929,-11.7663 z"
     id="path1704" />
  <path
     style="opacity:1;fill:#9a9a9a;fill-opacity:1;fill-rule:evenodd;stroke:none;stroke-width:1.28756;stroke-linecap:round;stroke-linejoin:round;stroke-miterlimit:4;stroke-dasharray:none;paint-order:fill markers stroke"
     d="m 1586.7706,1129.7538 c -17.7744,2.0069 -36.4278,12.1432 -43.2299,29.5139 -5.6284,18.8496 -6.3468,40.2601 2.1721,58.3806 8.5888,15.0536 25.6951,25.9062 43.2419,23.8071 7.1991,-0.1533 14.5609,-0.5495 20.8556,-4.3642 11.0285,-4.8975 19.7119,-15.8692 22.0036,-27.7606 1.5621,-4.8471 -1.9256,-11.7473 -7.7106,-9.9368 -6.7678,0.6155 -5.0633,9.3503 -7.7727,13.728 -5.0173,12.9614 -19.9602,18.9777 -33.0484,16.2178 -17.9093,-0.8831 -30.3407,-19.4341 -29.3839,-36.364 -0.099,-11.2504 -1.3658,-23.4567 5.6688,-33.1328 7.9599,-14.6156 27.5716,-20.9129 42.5225,-13.5296 7.9003,2.7785 12.9721,9.8487 16.874,16.6816 3.1253,2.9296 11.2122,3.8335 11.2794,-2.1421 1.0976,-9.4939 -7.7262,-16.0092 -13.6178,-22.0798 -8.0952,-6.0064 -18.8623,-7.4193 -28.482,-9.007 l -0.6693,-0.018 h -0.03 -0.01 z"
     id="path1706" />
  <path
     style="opacity:1;fill:#9a9a9a;fill-opacity:1;fill-rule:evenodd;stroke:none;stroke-width:1.28756;stroke-linecap:round;stroke-linejoin:round;stroke-miterlimit:4;stroke-dasharray:none;paint-order:fill markers stroke"
     d="m 1685.0087,1134.3566 c -4.8475,0.6585 -2.8803,7.9345 -3.7792,11.2352 -0.3198,29.6487 -0.9488,59.6469 0.493,89.193 -0.4463,4.3084 3.2776,6.967 7.3078,5.833 6.7885,-0.9335 5.1247,-9.8362 5.7824,-14.6714 0.8613,-10.396 -1.3403,-21.3727 1.7519,-31.4199 4.395,-4.3239 11.8258,-1.6062 17.3227,-2.539 11.6995,0.5541 23.857,-1.2525 35.297,1.4029 3.2634,5.522 1.4973,12.9083 2.4008,19.0857 0.9015,8.7654 -1.0247,18.2946 2.4604,26.5267 2.3837,1.1174 6.8387,2.9659 8.8567,0.6212 3.0729,-13.6418 1.2628,-27.925 1.961,-41.8351 -0.3101,-20.1175 1.1464,-40.3668 -0.6104,-60.4086 -1.6644,-4.4199 -8.7064,-3.4415 -11.2894,-0.6613 -3.167,12.9208 0.6535,26.7877 -2.5528,39.6852 -4.1701,3.0404 -10.4836,1.1402 -15.3704,2.0288 -12.4237,-0.077 -25.1045,0.9687 -37.3735,-1.107 -5.1095,-3.892 -1.7351,-11.8758 -2.9064,-17.2663 -0.7339,-7.7226 1.0312,-16.05 -1.6002,-23.3827 -2.0965,-2.1357 -5.3198,-2.4646 -8.1514,-2.3204 z"
     id="path1708" />
  <path
     style="opacity:1;fill:#9a9a9a;fill-opacity:1;fill-rule:evenodd;stroke:none;stroke-width:1.28756;stroke-linecap:round;stroke-linejoin:round;stroke-miterlimit:4;stroke-dasharray:none;paint-order:fill markers stroke"
     d="m 2007.4074,1130.7357 c -8.5782,1.3821 -17.7793,2.1896 -25.4181,6.6045 -11.0618,8.266 -20.3699,19.419 -22.5648,33.4454 -4.5815,15.4226 -1.0619,31.8062 5.4042,46.1033 7.4818,11.6237 19.5423,21.3276 33.253,23.5827 11.5147,0.071 23.8695,0.8744 33.8602,-5.9673 14.1349,-7.8197 22.4722,-23.3019 24.5946,-38.8376 2.5954,-11.1082 0.1831,-22.8355 -3.657,-33.273 -4.3691,-10.4355 -11.506,-19.8634 -21.5909,-25.3 -6.5442,-4.5941 -15.1555,-4.1233 -22.6429,-6.37 -0.4127,-0.01 -0.8259,-0.016 -1.2383,0.012 z m -0.9839,11.8084 c 9.9037,-0.2272 19.5107,3.3101 26.6105,10.2729 5.2623,3.5414 5.9061,10.4327 8.7846,15.6802 4.1181,13.2476 3.4356,28.1638 -1.4568,41.1079 -4.6407,8.8181 -12.3107,17.1483 -22.0237,20.1842 -9.6092,1.1804 -20.4894,1.9088 -29.2374,-2.8774 -9.2474,-7.0851 -15.8891,-17.2584 -17.734,-28.8526 -3.7749,-13.6249 -0.5755,-28.9388 6.9957,-40.7052 6.097,-9.5157 16.7052,-15.3129 28.0611,-14.81 z"
     id="path1712" />
  <path
     style="opacity:1;fill:#9a9a9a;fill-opacity:1;fill-rule:evenodd;stroke:none;stroke-width:1.28756;stroke-linecap:round;stroke-linejoin:round;stroke-miterlimit:4;stroke-dasharray:none;paint-order:fill markers stroke"
     d="m 2110.2943,1133.8336 c -5.0214,-0.01 -8.2438,4.913 -7.201,9.6714 -0.5139,29.9915 -1.2429,60.3465 0.2619,90.2218 -0.5877,5.8655 5.0969,8.2366 10.041,7.6004 18.4457,0.2278 37.1447,1.2742 55.5051,-0.6172 5.716,-0.2087 9.9762,-10.0355 2.8895,-11.9486 -11.4617,-3.2003 -23.7622,-0.755 -35.5413,-1.3885 -4.8865,-0.9045 -12.348,2.114 -15.6457,-2.7814 -2.3215,-19.2297 -0.8934,-38.827 -1.3988,-58.1942 -0.7359,-10.1354 1.3875,-20.9364 -2.0958,-30.594 -1.8093,-1.4195 -4.5175,-2.0012 -6.8149,-1.9697 z"
     id="path1714" />
  <path
     style="opacity:1;fill:#9a9a9a;fill-opacity:1;fill-rule:evenodd;stroke:none;stroke-width:1.28756;stroke-linecap:round;stroke-linejoin:round;stroke-miterlimit:4;stroke-dasharray:none;paint-order:fill markers stroke"
     d="m 2299.9175,1132.5071 c -6.8672,0.7222 -14.4878,-1.036 -20.8435,1.8114 -2.806,7.1536 -0.9797,15.47 -1.7159,23.0635 0,26.8713 -0.7413,53.9404 0.3593,80.695 5.3334,4.9514 13.5615,2.4484 20.1676,3.5055 15.9636,-0.057 33.8844,2.344 47.3704,-8.0621 7.8295,-6.1726 15.8817,-13.3305 17.6862,-23.5718 6.1126,-12.5273 3.4089,-26.7686 4.069,-40.221 -5.5928,-11.7183 -10.5448,-25.8165 -23.5333,-31.2669 -13.0952,-7.4427 -29.159,-5.2173 -43.5598,-5.9536 z m 8.5542,13.9143 c 9.5936,-0.2947 19.2994,0.8226 27.7584,5.6864 6.8788,2.1635 10.5304,9.7514 12.584,16.143 2.5171,12.9108 1.6515,26.3943 -0.6011,39.1902 -7.4271,12.5017 -21.6916,21.3797 -36.4891,20.2625 -6.4606,0.082 -14.1886,0.25 -18.6173,-5.222 0.1492,-23.5562 -1.1202,-47.2332 0.084,-70.726 2.306,-5.8144 10.2606,-4.9967 15.281,-5.3341 z"
     id="path1716" />
  <path
     style="opacity:1;fill:#9a9a9a;fill-opacity:1;fill-rule:evenodd;stroke:none;stroke-width:1.28756;stroke-linecap:round;stroke-linejoin:round;stroke-miterlimit:4;stroke-dasharray:none;paint-order:fill markers stroke"
     d="m 2516.7663,1128.7479 c -8.1909,-0.026 -15.5498,4.0604 -23.1479,6.5384 -9.6561,5.3394 -14.288,16.983 -14.5195,27.4941 1.8791,8.7274 4.9897,19.058 14.4434,22.1199 15.3561,8.3873 35.2135,6.2966 48.7343,18.2666 6.7514,5.8727 2.2688,15.3211 -2.8013,20.607 -6.2797,7.947 -17.7505,4.1115 -26.36,4.5747 -11.7358,0.5308 -18.0517,-10.8511 -23.1636,-19.5738 -2.2319,-6.0678 -13.4795,-6.5303 -13.6982,0.8944 -2.0418,9.0636 3.3892,17.3912 10.5961,22.3664 8.6111,6.9763 19.3785,11.72 30.626,10.3857 9.3436,0.3788 18.8303,-0.4405 27.0807,-5.2907 7.0181,-2.616 11.3456,-9.8482 14.997,-15.9796 1.8492,-8.4016 2.1337,-18.2367 -2.0739,-26.0494 -4.9545,-5.731 -10.9634,-11.3737 -18.7676,-12.3253 -13.1678,-6.2041 -29.3038,-5.2781 -40.8894,-14.8782 -7.3214,-8.5956 1.4333,-22.1578 11.8752,-22.1257 8.8485,-0.076 19.9746,-2.8363 26.6518,4.7368 3.9462,2.8608 4.9867,7.4607 6.9511,11.5017 2.4212,5.1172 11.1611,5.8188 13.8643,0.8256 3.3164,-11.5132 -6.5447,-20.7236 -14.4474,-27.3879 -5.0639,-2.7533 -10.8713,-4.0889 -16.2708,-6.0815 -3.1867,-0.5913 -6.4466,-0.7008 -9.6803,-0.6192 z"
     id="path1720" />
  <path
     style="opacity:1;fill:#9a9a9a;fill-opacity:1;fill-rule:evenodd;stroke:none;stroke-width:1.28756;stroke-linecap:round;stroke-linejoin:round;stroke-miterlimit:4;stroke-dasharray:none;paint-order:fill markers stroke"
     d="m 2631.177,1134.3726 c -10.5803,0.6796 -21.7655,-1.3537 -31.8904,2.0218 -1.9957,3.5157 0.5467,8.0832 4.759,7.5423 8.2618,1.4059 17.4771,-1.6072 25.1556,2.2783 7.3305,3.8106 3.3013,12.9556 4.3615,19.583 0.5316,23.2964 -0.7282,46.7521 1.149,69.9366 1.7298,6.0197 10.7904,1.0257 9.1311,-4.0247 1.0827,-27.6391 -0.1496,-55.6956 1.0602,-83.2086 7.5184,-7.3016 18.9158,-2.7042 28.0832,-4.4364 3.5501,0.031 6.7041,-4.6294 6.2097,-7.3399 -9.4979,-3.843 -20.2387,-1.5262 -30.2532,-2.3437 -5.9218,-0.016 -11.8438,-0.017 -17.7657,-0.01 z"
     id="path1722" />
  <path
     style="opacity:1;fill:#9a9a9a;fill-opacity:1;fill-rule:evenodd;stroke:none;stroke-width:1.28756;stroke-linecap:round;stroke-linejoin:round;stroke-miterlimit:4;stroke-dasharray:none;paint-order:fill markers stroke"
     d="m 2733.9116,1133.4208 c -4.8118,-0.4076 -12.9934,0.5239 -11.335,7.3679 0.2756,30.524 -1.2037,61.1867 0.4704,91.6216 -0.2535,4.7528 4.3117,10.7849 9.2395,7.1215 6.4715,-2.5885 2.9626,-10.8082 4.0459,-16.0524 0.5095,-8.2194 -0.9831,-16.9972 0.7412,-24.8291 10.5645,-4.0597 22.4104,-2.4147 33.5072,-2.4482 10.7677,-0.4341 18.8265,10.5357 17.816,20.7269 1.0127,6.8784 -0.895,15.1266 3.2822,21.0839 3.319,3.0947 10.1765,3.8684 13.1229,0.2525 0.5852,-11.2488 -3.3151,-22.1739 -4.3451,-33.3276 -0.7474,-3.3258 -1.0848,-7.5185 -4.4035,-9.1348 -2.3223,-3.543 -6.499,-8.6296 -0.8647,-11.4152 12.4492,-10.7056 13.3254,-32.249 0.4665,-42.9606 -5.2707,-6.7384 -13.9095,-7.4132 -21.7849,-7.3622 -13.2705,-0.4717 -26.647,-0.6533 -39.9586,-0.6442 z m 21.8093,12.5838 c 9.1639,0.7468 19.2861,-0.9451 27.7606,3.2382 7.5261,4.549 5.4191,14.9663 4.7931,22.2661 -1.9885,8.0919 -11.7199,11.033 -19.0161,11.9006 -9.51,0.06 -19.3693,0.8023 -28.6502,-0.3547 -5.591,-7.7946 -3.9913,-18.2452 -4.2681,-27.2917 0.05,-3.8832 0.4439,-9.925 5.8891,-9.2355 4.4789,-0.4804 8.992,-0.5024 13.4916,-0.523 z"
     id="path1724" />
  <path
     style="opacity:1;fill:#9a9a9a;fill-opacity:1;fill-rule:evenodd;stroke:none;stroke-width:1.28756;stroke-linecap:round;stroke-linejoin:round;stroke-miterlimit:4;stroke-dasharray:none;paint-order:fill markers stroke"
     d="m 3094.4926,1132.3447 c -13.9805,0.4998 -28.2097,-0.7433 -41.9855,1.5209 -5.864,1.1476 -3.574,8.3949 -0.7955,11.3135 9.373,4.6333 20.7184,-0.3594 30.2853,3.1319 4.6481,8.758 0.8869,18.7845 2.4747,28.0631 1.1786,19.9667 -1.6979,40.1845 0.5531,59.9817 1.1884,6.9988 13.0042,7.1024 15.4452,1.7252 0.3366,-28.7702 -0.7425,-57.6421 0.8557,-86.3535 2.0703,-6.5054 10.8144,-4.0684 15.878,-4.5046 5.8252,-0.4942 14.5796,1.7515 18.0803,-4.3402 2.6627,-4.2279 0.1265,-9.6104 -4.9995,-9.7605 -11.8366,-1.2882 -23.8664,-0.5547 -35.7918,-0.7775 z"
     id="path1730" />
  <path
     style="opacity:1;fill:#9a9a9a;fill-opacity:1;fill-rule:evenodd;stroke:none;stroke-width:1.28756;stroke-linecap:round;stroke-linejoin:round;stroke-miterlimit:4;stroke-dasharray:none;paint-order:fill markers stroke"
     d="m 2966.7347,1129.9788 c -17.7744,2.0069 -36.4278,12.1432 -43.2299,29.5139 -5.6284,18.8496 -6.3468,40.2601 2.1721,58.3806 8.5888,15.0536 25.6951,25.9062 43.2419,23.8071 7.1991,-0.1533 14.5609,-0.5495 20.8556,-4.3642 11.0285,-4.8975 19.7119,-15.8692 22.0036,-27.7606 1.5621,-4.8471 -1.9256,-11.7473 -7.7106,-9.9368 -6.7678,0.6155 -5.0633,9.3503 -7.7727,13.728 -5.0173,12.9614 -19.9602,18.9777 -33.0484,16.2178 -17.9093,-0.8831 -30.3407,-19.4341 -29.3839,-36.364 -0.099,-11.2504 -1.3658,-23.4567 5.6688,-33.1328 7.9599,-14.6156 27.5716,-20.9129 42.5225,-13.5296 7.9003,2.7785 12.9721,9.8487 16.874,16.6816 3.1253,2.9296 11.2122,3.8335 11.2794,-2.1421 1.0976,-9.4939 -7.7262,-16.0092 -13.6178,-22.0798 -8.0952,-6.0064 -18.8623,-7.4193 -28.482,-9.007 l -0.6693,-0.018 h -0.03 -0.01 z"
     id="path1706-7" />
  <path
     style="opacity:1;fill:#9a9a9a;fill-opacity:1;fill-rule:evenodd;stroke:none;stroke-width:0.643779;stroke-linecap:round;stroke-linejoin:round;stroke-miterlimit:4;stroke-dasharray:none;paint-order:fill markers stroke"
     d="m 2420.4621,1134.3127 c -3.2372,-0.3457 -6.8067,1.614 -6.6676,5.2269 -0.661,31.5916 -0.3618,63.3009 -0.5019,94.9378 1.169,2.6633 2.6182,6.1598 6.1566,5.9453 1.945,0.2869 4.4612,1.0449 5.5736,-1.2875 2.375,-3.3581 0.873,-7.6597 1.4417,-11.5078 0.3086,-29.5567 0.7165,-59.1335 -0.024,-88.683 -0.1515,-3.3227 -2.657,-5.3468 -5.9784,-4.6317 z"
     id="path1672-0" />
  <path
     style="opacity:1;fill:#9a9a9a;fill-opacity:1;fill-rule:evenodd;stroke:none;stroke-width:0.643779;stroke-linecap:round;stroke-linejoin:round;stroke-miterlimit:4;stroke-dasharray:none;paint-order:fill markers stroke"
     d="m 2863.4967,1133.8847 c -3.2372,-0.3457 -6.8067,1.614 -6.6676,5.2269 -0.661,31.5916 -0.3618,63.3009 -0.5019,94.9378 1.169,2.6633 2.6182,6.1598 6.1566,5.9453 1.945,0.2869 4.4612,1.0449 5.5736,-1.2875 2.375,-3.3581 0.873,-7.6597 1.4417,-11.5078 0.3086,-29.5567 0.7165,-59.1335 -0.024,-88.683 -0.1515,-3.3227 -2.657,-5.3468 -5.9784,-4.6317 z"
     id="path1672-2" />
  <path
     style="opacity:1;fill:#9a9a9a;fill-opacity:1;fill-rule:evenodd;stroke:none;stroke-width:1.82088;stroke-linecap:round;stroke-linejoin:round;stroke-miterlimit:4;stroke-dasharray:none;paint-order:fill markers stroke"
     d="m 724.24432,1133.6953 c -7.82357,-0.3587 -9.17021,7.9966 -8.51174,13.9898 0.10815,29.1722 -1.49487,58.5145 1.03903,87.5904 0.4071,6.7748 9.53895,8.4087 12.39785,2.3691 3.22112,-17.9713 0.51925,-36.6587 1.66745,-54.8755 1.16807,-4.9926 -1.7424,-13.0924 3.11316,-16.3265 5.0607,0.757 5.92324,8.3587 9.77548,11.4161 8.87818,12.0493 15.62987,25.55 24.93001,37.2855 5.37528,8.9796 10.12289,19.9402 19.31515,25.5099 5.35986,2.5611 13.94997,0.4176 12.63589,-6.9003 1.82575,-31.9255 2.51692,-64.6756 -0.6376,-96.5247 -2.95325,-6.7181 -14.36155,-2.7769 -13.13181,4.4915 -1.08717,21.9816 -0.20669,44.0173 -0.42224,66.0189 -6.48108,2.2379 -11.00776,-6.7236 -14.27141,-11.4969 -12.32592,-19.5308 -25.11274,-38.8672 -37.76556,-58.1237 -2.6292,-2.7032 -6.30031,-4.5662 -10.13366,-4.4236 z"
     id="path1678-4" />
  <path
     style="opacity:1;fill:#9a9a9a;fill-opacity:1;fill-rule:evenodd;stroke:none;stroke-width:1.82088;stroke-linecap:round;stroke-linejoin:round;stroke-miterlimit:4;stroke-dasharray:none;paint-order:fill markers stroke"
     d="m 1116.8429,1133.8709 c -7.8235,-0.3587 -9.1702,7.9966 -8.5117,13.9898 0.1082,29.1722 -1.4949,58.5145 1.039,87.5904 0.4071,6.7748 9.539,8.4087 12.3979,2.3691 3.2211,-17.9713 0.5192,-36.6587 1.6674,-54.8755 1.1681,-4.9926 -1.7424,-13.0924 3.1132,-16.3265 5.0607,0.757 5.9232,8.3587 9.7755,11.4161 8.8781,12.0493 15.6298,25.55 24.93,37.2855 5.3753,8.9796 10.1229,19.9402 19.3151,25.5099 5.3599,2.5611 13.95,0.4176 12.6359,-6.9003 1.8258,-31.9255 2.5169,-64.6756 -0.6376,-96.5247 -2.9532,-6.7181 -14.3615,-2.7769 -13.1318,4.4915 -1.0872,21.9816 -0.2067,44.0173 -0.4222,66.0189 -6.4811,2.2379 -11.0078,-6.7236 -14.2714,-11.4969 -12.326,-19.5308 -25.1128,-38.8672 -37.7656,-58.1237 -2.6292,-2.7032 -6.3003,-4.5662 -10.1337,-4.4236 z"
     id="path1678-6" />
  <path
     style="opacity:1;fill:#9a9a9a;fill-opacity:1;fill-rule:evenodd;stroke:none;stroke-width:1.28756;stroke-linecap:round;stroke-linejoin:round;stroke-miterlimit:4;stroke-dasharray:none;paint-order:fill markers stroke"
     d="m 1864.334,1131.1146 c -8.5782,1.3821 -17.7793,2.1896 -25.4181,6.6045 -11.0618,8.266 -20.3699,19.419 -22.5648,33.4454 -4.5815,15.4226 -1.0619,31.8062 5.4042,46.1033 7.4818,11.6237 19.5423,21.3276 33.253,23.5827 11.5147,0.071 23.8695,0.8744 33.8602,-5.9673 14.1349,-7.8197 22.4722,-23.3019 24.5946,-38.8376 2.5954,-11.1082 0.1831,-22.8355 -3.657,-33.273 -4.3691,-10.4355 -11.506,-19.8634 -21.5909,-25.3 -6.5442,-4.5941 -15.1555,-4.1233 -22.6429,-6.37 -0.4127,-0.01 -0.8259,-0.016 -1.2383,0.012 z m -0.9839,11.8084 c 9.9037,-0.2272 19.5107,3.3101 26.6105,10.2729 5.2623,3.5414 5.9061,10.4327 8.7846,15.6802 4.1181,13.2476 3.4356,28.1638 -1.4568,41.1079 -4.6407,8.8181 -12.3107,17.1483 -22.0237,20.1842 -9.6092,1.1804 -20.4894,1.9088 -29.2374,-2.8774 -9.2474,-7.0851 -15.8891,-17.2584 -17.734,-28.8526 -3.7749,-13.6249 -0.5755,-28.9388 6.9957,-40.7052 6.097,-9.5157 16.7052,-15.3129 28.0611,-14.81 z"
     id="path1712-5" />
  <path
     style="opacity:1;fill:#9a9a9a;fill-opacity:1;fill-rule:evenodd;stroke:none;stroke-width:1.28756;stroke-linecap:round;stroke-linejoin:round;stroke-miterlimit:4;stroke-dasharray:none;paint-order:fill markers stroke"
     d="m 617.20792,1132.4546 c -7.46408,0.7801 -16.284,-1.2811 -22.84528,3.1139 -2.47299,9.5877 -0.59463,19.9813 -1.17896,29.8886 0.57449,23.6417 -0.65285,47.418 1.42944,70.9625 0.57461,6.3271 8.98643,4.1172 13.05149,4.8703 18.9872,0.1539 38.14311,1.4031 57.02124,-0.5361 7.11073,-0.4105 7.5564,-13.7973 -0.43482,-12.626 -16.49119,-1.13 -33.47973,0.5609 -49.76827,-0.8776 -6.28441,-8.1472 -4.38776,-19.2692 -3.23213,-28.7264 0.46168,-5.7855 5.22867,-6.9848 10.31154,-5.9713 13.44145,-0.5743 27.29218,1.1419 40.43659,-1.01 5.1186,-3.928 2.8036,-15.8243 -5.22189,-13.6117 -14.19484,-0.5462 -28.80894,2.2624 -42.76501,-0.9318 -4.71565,-2.7998 -2.33234,-9.8098 -3.46815,-14.3398 0.68573,-4.7507 -2.97289,-12.8963 2.96119,-15.3605 17.19429,-2.5223 34.81878,0.6312 52.02656,-1.3565 5.15022,-2.2169 6.09701,-12.0898 -0.64322,-12.5338 -15.78986,-1.1448 -31.80711,-0.8082 -47.68032,-0.9538 z"
     id="path1686-8" />
  <path
     style="opacity:1;fill:#9a9a9a;fill-opacity:1;fill-rule:evenodd;stroke:none;stroke-width:1.28756;stroke-linecap:round;stroke-linejoin:round;stroke-miterlimit:4;stroke-dasharray:none;paint-order:fill markers stroke"
     d="m 1010.3054,1132.6733 c -7.4641,0.7801 -16.28396,-1.2811 -22.84526,3.1139 -2.4729,9.5877 -0.5946,19.9813 -1.1789,29.8886 0.5745,23.6417 -0.6529,47.418 1.4294,70.9625 0.5746,6.3271 8.9865,4.1172 13.05146,4.8703 18.9872,0.1539 38.1431,1.4031 57.0213,-0.5361 7.1107,-0.4105 7.5564,-13.7973 -0.4349,-12.626 -16.4912,-1.13 -33.4797,0.5609 -49.7682,-0.8776 -6.2844,-8.1472 -4.3878,-19.2692 -3.2322,-28.7264 0.4617,-5.7855 5.2287,-6.9848 10.3116,-5.9713 13.4414,-0.5743 27.2922,1.1419 40.4366,-1.01 5.1186,-3.928 2.8036,-15.8243 -5.2219,-13.6117 -14.1949,-0.5462 -28.809,2.2624 -42.765,-0.9318 -4.7157,-2.7998 -2.3324,-9.8098 -3.4682,-14.3398 0.6857,-4.7507 -2.9729,-12.8963 2.9612,-15.3605 17.1943,-2.5223 34.8188,0.6312 52.0266,-1.3565 5.1502,-2.2169 6.097,-12.0898 -0.6433,-12.5338 -15.7898,-1.1448 -31.8071,-0.8082 -47.6803,-0.9538 z"
     id="path1686-2" />
</svg>
